<svg class="main-svg" xmlns="http://www.w3.org/2000/svg" xmlns:xlink="http://www.w3.org/1999/xlink" width="1200" height="500" style="" viewBox="0 0 1200 500"><rect x="0" y="0" width="1200" height="500" style="fill: rgb(255, 255, 255); fill-opacity: 1;"/><defs id="defs-7817f6"><g class="clips"><clipPath id="clip7817f6xyplot" class="plotclip"><rect width="882" height="421"/></clipPath><clipPath class="axesclip" id="clip7817f6x"><rect x="98" y="0" width="882" height="500"/></clipPath><clipPath class="axesclip" id="clip7817f6y"><rect x="0" y="0" width="1200" height="421"/></clipPath><clipPath class="axesclip" id="clip7817f6xy"><rect x="98" y="0" width="882" height="421"/></clipPath></g><g class="gradients"/><g class="patterns"/></defs><g class="bglayer"/><g class="layer-below"><g class="imagelayer"/><g class="shapelayer"/></g><g class="cartesianlayer"><g class="subplot xy"><g class="layer-subplot"><g class="shapelayer"/><g class="imagelayer"/></g><g class="minor-gridlayer"><g class="x"/><g class="y"/></g><g class="gridlayer"><g class="x"/><g class="y"><path class="ygrid crisp" transform="translate(0,387.01)" d="M98,0h882" style="stroke: rgb(235, 240, 248); stroke-opacity: 1; stroke-width: 1px;"/><path class="ygrid crisp" transform="translate(0,278.74)" d="M98,0h882" style="stroke: rgb(235, 240, 248); stroke-opacity: 1; stroke-width: 1px;"/><path class="ygrid crisp" transform="translate(0,170.47)" d="M98,0h882" style="stroke: rgb(235, 240, 248); stroke-opacity: 1; stroke-width: 1px;"/><path class="ygrid crisp" transform="translate(0,62.2)" d="M98,0h882" style="stroke: rgb(235, 240, 248); stroke-opacity: 1; stroke-width: 1px;"/></g></g><g class="zerolinelayer"/><path class="xlines-below"/><path class="ylines-below"/><g class="overlines-below"/><g class="xaxislayer-below"/><g class="yaxislayer-below"/><g class="overaxes-below"/><g class="plot" transform="translate(98,0)" clip-path="url(#clip7817f6xyplot)"><g class="scatterlayer mlayer"><g class="trace scatter trace6a2e1f" style="stroke-miterlimit: 2; opacity: 1;"><g class="fills"/><g class="errorbars"/><g class="lines"><path class="js-line" d="M54.73,349.55L325.84,349.53L461.4,315.63L596.96,223.2L732.52,115.64" style="vector-effect: none; fill: none; stroke: rgb(255, 161, 90); stroke-opacity: 1; stroke-width: 5px; opacity: 1;"/></g><g class="points"><path class="point" transform="translate(54.73,349.55)" d="M8.5,0A8.5,8.5 0 1,1 0,-8.5A8.5,8.5 0 0,1 8.5,0Z" style="opacity: 1; stroke-width: 0px; fill: rgb(255, 161, 90); fill-opacity: 1;"/><path class="point" transform="translate(190.28,349.55)" d="M8.5,0A8.5,8.5 0 1,1 0,-8.5A8.5,8.5 0 0,1 8.5,0Z" style="opacity: 1; stroke-width: 0px; fill: rgb(255, 161, 90); fill-opacity: 1;"/><path class="point" transform="translate(325.84,349.53)" d="M8.5,0A8.5,8.5 0 1,1 0,-8.5A8.5,8.5 0 0,1 8.5,0Z" style="opacity: 1; stroke-width: 0px; fill: rgb(255, 161, 90); fill-opacity: 1;"/><path class="point" transform="translate(461.4,315.63)" d="M8.5,0A8.5,8.5 0 1,1 0,-8.5A8.5,8.5 0 0,1 8.5,0Z" style="opacity: 1; stroke-width: 0px; fill: rgb(255, 161, 90); fill-opacity: 1;"/><path class="point" transform="translate(596.96,223.2)" d="M8.5,0A8.5,8.5 0 1,1 0,-8.5A8.5,8.5 0 0,1 8.5,0Z" style="opacity: 1; stroke-width: 0px; fill: rgb(255, 161, 90); fill-opacity: 1;"/><path class="point" transform="translate(732.52,115.64)" d="M8.5,0A8.5,8.5 0 1,1 0,-8.5A8.5,8.5 0 0,1 8.5,0Z" style="opacity: 1; stroke-width: 0px; fill: rgb(255, 161, 90); fill-opacity: 1;"/></g><g class="text"/></g><g class="trace scatter trace3b9b7f" style="stroke-miterlimit: 2; opacity: 1;"><g class="fills"/><g class="errorbars"/><g class="lines"><path class="js-line" d="M54.73,122.44L325.84,122.51L461.4,121.18L596.96,119.78L732.52,100.29L827.28,31.68" style="vector-effect: none; fill: none; stroke: rgb(25, 211, 243); stroke-opacity: 1; stroke-width: 5px; opacity: 1;"/></g><g class="points"><path class="point" transform="translate(54.73,122.44)" d="M8.5,0A8.5,8.5 0 1,1 0,-8.5A8.5,8.5 0 0,1 8.5,0Z" style="opacity: 1; stroke-width: 0px; fill: rgb(25, 211, 243); fill-opacity: 1;"/><path class="point" transform="translate(190.28,122.41)" d="M8.5,0A8.5,8.5 0 1,1 0,-8.5A8.5,8.5 0 0,1 8.5,0Z" style="opacity: 1; stroke-width: 0px; fill: rgb(25, 211, 243); fill-opacity: 1;"/><path class="point" transform="translate(325.84,122.51)" d="M8.5,0A8.5,8.5 0 1,1 0,-8.5A8.5,8.5 0 0,1 8.5,0Z" style="opacity: 1; stroke-width: 0px; fill: rgb(25, 211, 243); fill-opacity: 1;"/><path class="point" transform="translate(461.4,121.18)" d="M8.5,0A8.5,8.5 0 1,1 0,-8.5A8.5,8.5 0 0,1 8.5,0Z" style="opacity: 1; stroke-width: 0px; fill: rgb(25, 211, 243); fill-opacity: 1;"/><path class="point" transform="translate(596.96,119.78)" d="M8.5,0A8.5,8.5 0 1,1 0,-8.5A8.5,8.5 0 0,1 8.5,0Z" style="opacity: 1; stroke-width: 0px; fill: rgb(25, 211, 243); fill-opacity: 1;"/><path class="point" transform="translate(732.52,100.29)" d="M8.5,0A8.5,8.5 0 1,1 0,-8.5A8.5,8.5 0 0,1 8.5,0Z" style="opacity: 1; stroke-width: 0px; fill: rgb(25, 211, 243); fill-opacity: 1;"/><path class="point" transform="translate(827.28,31.68)" d="M8.5,0A8.5,8.5 0 1,1 0,-8.5A8.5,8.5 0 0,1 8.5,0Z" style="opacity: 1; stroke-width: 0px; fill: rgb(25, 211, 243); fill-opacity: 1;"/></g><g class="text"/></g><g class="trace scatter trace153a41" style="stroke-miterlimit: 2; opacity: 1;"><g class="fills"/><g class="errorbars"/><g class="lines"><path class="js-line" d="M54.73,352.3L190.28,352.12L325.84,350.39L461.4,335.79L596.96,274.65L732.52,174.07L827.28,97.97" style="vector-effect: none; fill: none; stroke: rgb(171, 99, 250); stroke-opacity: 1; stroke-dasharray: 5px, 5px; stroke-width: 5px; opacity: 1;"/></g><g class="points"><path class="point" transform="translate(54.73,352.3)" d="M11.05,0L0,11.05L-11.05,0L0,-11.05Z" style="opacity: 1; stroke-width: 0px; fill: rgb(171, 99, 250); fill-opacity: 1;"/><path class="point" transform="translate(190.28,352.12)" d="M11.05,0L0,11.05L-11.05,0L0,-11.05Z" style="opacity: 1; stroke-width: 0px; fill: rgb(171, 99, 250); fill-opacity: 1;"/><path class="point" transform="translate(325.84,350.39)" d="M11.05,0L0,11.05L-11.05,0L0,-11.05Z" style="opacity: 1; stroke-width: 0px; fill: rgb(171, 99, 250); fill-opacity: 1;"/><path class="point" transform="translate(461.4,335.79)" d="M11.05,0L0,11.05L-11.05,0L0,-11.05Z" style="opacity: 1; stroke-width: 0px; fill: rgb(171, 99, 250); fill-opacity: 1;"/><path class="point" transform="translate(596.96,274.65)" d="M11.05,0L0,11.05L-11.05,0L0,-11.05Z" style="opacity: 1; stroke-width: 0px; fill: rgb(171, 99, 250); fill-opacity: 1;"/><path class="point" transform="translate(732.52,174.07)" d="M11.05,0L0,11.05L-11.05,0L0,-11.05Z" style="opacity: 1; stroke-width: 0px; fill: rgb(171, 99, 250); fill-opacity: 1;"/><path class="point" transform="translate(827.28,97.97)" d="M11.05,0L0,11.05L-11.05,0L0,-11.05Z" style="opacity: 1; stroke-width: 0px; fill: rgb(171, 99, 250); fill-opacity: 1;"/></g><g class="text"/></g><g class="trace scatter trace6b16c7" style="stroke-miterlimit: 2; opacity: 1;"><g class="fills"/><g class="errorbars"/><g class="lines"><path class="js-line" d="M54.73,339.41L325.84,339.36L461.4,329.65L596.96,324.9L732.52,285.51L827.28,218.28" style="vector-effect: none; fill: none; stroke: rgb(171, 99, 250); stroke-opacity: 1; stroke-dasharray: 15px, 15px; stroke-width: 5px; opacity: 1;"/></g><g class="points"><path class="point" transform="translate(54.73,339.41)" d="M8.5,8.5H-8.5V-8.5H8.5Z" style="opacity: 1; stroke-width: 0px; fill: rgb(171, 99, 250); fill-opacity: 1;"/><path class="point" transform="translate(190.28,339.41)" d="M8.5,8.5H-8.5V-8.5H8.5Z" style="opacity: 1; stroke-width: 0px; fill: rgb(171, 99, 250); fill-opacity: 1;"/><path class="point" transform="translate(325.84,339.36)" d="M8.5,8.5H-8.5V-8.5H8.5Z" style="opacity: 1; stroke-width: 0px; fill: rgb(171, 99, 250); fill-opacity: 1;"/><path class="point" transform="translate(461.4,329.65)" d="M8.5,8.5H-8.5V-8.5H8.5Z" style="opacity: 1; stroke-width: 0px; fill: rgb(171, 99, 250); fill-opacity: 1;"/><path class="point" transform="translate(596.96,324.9)" d="M8.5,8.5H-8.5V-8.5H8.5Z" style="opacity: 1; stroke-width: 0px; fill: rgb(171, 99, 250); fill-opacity: 1;"/><path class="point" transform="translate(732.52,285.51)" d="M8.5,8.5H-8.5V-8.5H8.5Z" style="opacity: 1; stroke-width: 0px; fill: rgb(171, 99, 250); fill-opacity: 1;"/><path class="point" transform="translate(827.28,218.28)" d="M8.5,8.5H-8.5V-8.5H8.5Z" style="opacity: 1; stroke-width: 0px; fill: rgb(171, 99, 250); fill-opacity: 1;"/></g><g class="text"/></g><g class="trace scatter tracebc241d" style="stroke-miterlimit: 2; opacity: 1;"><g class="fills"/><g class="errorbars"/><g class="lines"><path class="js-line" d="M54.73,389.33L190.28,388.06L325.84,378.4L461.4,327.97L596.96,232.4L827.28,48.97" style="vector-effect: none; fill: none; stroke: rgb(171, 99, 250); stroke-opacity: 1; stroke-dasharray: 25px, 25px; stroke-width: 5px; opacity: 1;"/></g><g class="points"><path class="point" transform="translate(54.73,389.33)" d="M0,4.81l4.81,4.81l4.81,-4.81l-4.81,-4.81l4.81,-4.81l-4.81,-4.81l-4.81,4.81l-4.81,-4.81l-4.81,4.81l4.81,4.81l-4.81,4.81l4.81,4.81Z" style="opacity: 1; stroke-width: 0px; fill: rgb(171, 99, 250); fill-opacity: 1;"/><path class="point" transform="translate(190.28,388.06)" d="M0,4.81l4.81,4.81l4.81,-4.81l-4.81,-4.81l4.81,-4.81l-4.81,-4.81l-4.81,4.81l-4.81,-4.81l-4.81,4.81l4.81,4.81l-4.81,4.81l4.81,4.81Z" style="opacity: 1; stroke-width: 0px; fill: rgb(171, 99, 250); fill-opacity: 1;"/><path class="point" transform="translate(325.84,378.4)" d="M0,4.81l4.81,4.81l4.81,-4.81l-4.81,-4.81l4.81,-4.81l-4.81,-4.81l-4.81,4.81l-4.81,-4.81l-4.81,4.81l4.81,4.81l-4.81,4.81l4.81,4.81Z" style="opacity: 1; stroke-width: 0px; fill: rgb(171, 99, 250); fill-opacity: 1;"/><path class="point" transform="translate(461.4,327.97)" d="M0,4.81l4.81,4.81l4.81,-4.81l-4.81,-4.81l4.81,-4.81l-4.81,-4.81l-4.81,4.81l-4.81,-4.81l-4.81,4.81l4.81,4.81l-4.81,4.81l4.81,4.81Z" style="opacity: 1; stroke-width: 0px; fill: rgb(171, 99, 250); fill-opacity: 1;"/><path class="point" transform="translate(596.96,232.4)" d="M0,4.81l4.81,4.81l4.81,-4.81l-4.81,-4.81l4.81,-4.81l-4.81,-4.81l-4.81,4.81l-4.81,-4.81l-4.81,4.81l4.81,4.81l-4.81,4.81l4.81,4.81Z" style="opacity: 1; stroke-width: 0px; fill: rgb(171, 99, 250); fill-opacity: 1;"/><path class="point" transform="translate(732.52,124.42)" d="M0,4.81l4.81,4.81l4.81,-4.81l-4.81,-4.81l4.81,-4.81l-4.81,-4.81l-4.81,4.81l-4.81,-4.81l-4.81,4.81l4.81,4.81l-4.81,4.81l4.81,4.81Z" style="opacity: 1; stroke-width: 0px; fill: rgb(171, 99, 250); fill-opacity: 1;"/><path class="point" transform="translate(827.28,48.97)" d="M0,4.81l4.81,4.81l4.81,-4.81l-4.81,-4.81l4.81,-4.81l-4.81,-4.81l-4.81,4.81l-4.81,-4.81l-4.81,4.81l4.81,4.81l-4.81,4.81l4.81,4.81Z" style="opacity: 1; stroke-width: 0px; fill: rgb(171, 99, 250); fill-opacity: 1;"/></g><g class="text"/></g></g></g><g class="overplot"/><path class="xlines-above crisp" d="M0,0" style="fill: none;"/><path class="ylines-above crisp" d="M0,0" style="fill: none;"/><g class="overlines-above"/><g class="xaxislayer-above"><g class="xtick"><text text-anchor="middle" x="0" y="440" transform="translate(152.73,0)" style="font-family: 'Open Sans', verdana, arial, sans-serif; font-size: 18px; fill: rgb(42, 63, 95); fill-opacity: 1; white-space: pre; opacity: 1;">1</text></g><g class="xtick"><text text-anchor="middle" x="0" y="440" style="font-family: 'Open Sans', verdana, arial, sans-serif; font-size: 18px; fill: rgb(42, 63, 95); fill-opacity: 1; white-space: pre; opacity: 1;" transform="translate(288.28,0)">10</text></g><g class="xtick"><text text-anchor="middle" x="0" y="440" style="font-family: 'Open Sans', verdana, arial, sans-serif; font-size: 18px; fill: rgb(42, 63, 95); fill-opacity: 1; white-space: pre; opacity: 1;" transform="translate(423.84,0)">100</text></g><g class="xtick"><text text-anchor="middle" x="0" y="440" style="font-family: 'Open Sans', verdana, arial, sans-serif; font-size: 18px; fill: rgb(42, 63, 95); fill-opacity: 1; white-space: pre; opacity: 1;" transform="translate(559.4,0)">1000</text></g><g class="xtick"><text text-anchor="middle" x="0" y="440" style="font-family: 'Open Sans', verdana, arial, sans-serif; font-size: 18px; fill: rgb(42, 63, 95); fill-opacity: 1; white-space: pre; opacity: 1;" transform="translate(694.96,0)">10k</text></g><g class="xtick"><text text-anchor="middle" x="0" y="440" style="font-family: 'Open Sans', verdana, arial, sans-serif; font-size: 18px; fill: rgb(42, 63, 95); fill-opacity: 1; white-space: pre; opacity: 1;" transform="translate(830.52,0)">100k</text></g><g class="xtick"><text text-anchor="middle" x="0" y="440" style="font-family: 'Open Sans', verdana, arial, sans-serif; font-size: 18px; fill: rgb(42, 63, 95); fill-opacity: 1; white-space: pre; opacity: 1;" transform="translate(966.08,0)">1M</text></g></g><g class="yaxislayer-above"><g class="ytick"><text text-anchor="end" x="97" y="6.3" transform="translate(0,387.01)" style="font-family: 'Open Sans', verdana, arial, sans-serif; font-size: 18px; fill: rgb(42, 63, 95); fill-opacity: 1; white-space: pre; opacity: 1;">10</text></g><g class="ytick"><text text-anchor="end" x="97" y="6.3" style="font-family: 'Open Sans', verdana, arial, sans-serif; font-size: 18px; fill: rgb(42, 63, 95); fill-opacity: 1; white-space: pre; opacity: 1;" transform="translate(0,278.74)">100</text></g><g class="ytick"><text text-anchor="end" x="97" y="6.3" style="font-family: 'Open Sans', verdana, arial, sans-serif; font-size: 18px; fill: rgb(42, 63, 95); fill-opacity: 1; white-space: pre; opacity: 1;" transform="translate(0,170.47)">1000</text></g><g class="ytick"><text text-anchor="end" x="97" y="6.3" style="font-family: 'Open Sans', verdana, arial, sans-serif; font-size: 18px; fill: rgb(42, 63, 95); fill-opacity: 1; white-space: pre; opacity: 1;" transform="translate(0,62.2)">10k</text></g></g><g class="overaxes-above"/></g></g><g class="polarlayer"/><g class="smithlayer"/><g class="ternarylayer"/><g class="geolayer"/><g class="funnelarealayer"/><g class="pielayer"/><g class="iciclelayer"/><g class="treemaplayer"/><g class="sunburstlayer"/><g class="glimages"/><defs id="topdefs-7817f6"><g class="clips"/><clipPath id="legend7817f6"><rect width="202" height="171" x="0" y="0"/></clipPath></defs><g class="layer-above"><g class="imagelayer"/><g class="shapelayer"/></g><g class="infolayer"><g class="legend" pointer-events="all" transform="translate(997.64,0)"><rect class="bg" shape-rendering="crispEdges" width="202" height="171" x="0" y="0" style="stroke: rgb(68, 68, 68); stroke-opacity: 1; fill: rgb(255, 255, 255); fill-opacity: 1; stroke-width: 0px;"/><g class="scrollbox" transform="" clip-path="url(#legend7817f6)"><text class="legendtitletext" text-anchor="start" x="2" y="28.6" style="font-family: 'Open Sans', verdana, arial, sans-serif; font-size: 22px; fill: rgb(42, 63, 95); fill-opacity: 1; white-space: pre;">Framework, Optim.</text><g class="groups" transform=""><g class="traces" transform="translate(0,46.800000000000004)" style="opacity: 1;"><text class="legendtext" text-anchor="start" x="40" y="7.0200000000000005" style="font-family: 'Open Sans', verdana, arial, sans-serif; font-size: 18px; fill: rgb(42, 63, 95); fill-opacity: 1; white-space: pre;">ABY [30], </text><g class="layers" style="opacity: 1;"><g class="legendfill"/><g class="legendlines"><path class="js-line" d="M5,0h30" style="fill: none; stroke: rgb(255, 161, 90); stroke-opacity: 1; stroke-width: 5px;"/></g><g class="legendsymbols"><g class="legendpoints"><path class="scatterpts" transform="translate(20,0)" d="M8,0A8,8 0 1,1 0,-8A8,8 0 0,1 8,0Z" style="opacity: 1; stroke-width: 0px; fill: rgb(255, 161, 90); fill-opacity: 1;"/></g></g></g><rect class="legendtoggle" x="0" y="-13.200000000000001" width="163.328125" height="26.400000000000002" style="fill: rgb(0, 0, 0); fill-opacity: 0;"/></g></g><g class="groups" transform=""><g class="traces" transform="translate(0,73.2)" style="opacity: 1;"><text class="legendtext" text-anchor="start" x="40" y="7.0200000000000005" style="font-family: 'Open Sans', verdana, arial, sans-serif; font-size: 18px; fill: rgb(42, 63, 95); fill-opacity: 1; white-space: pre;">MOTION [17], </text><g class="layers" style="opacity: 1;"><g class="legendfill"/><g class="legendlines"><path class="js-line" d="M5,0h30" style="fill: none; stroke: rgb(25, 211, 243); stroke-opacity: 1; stroke-width: 5px;"/></g><g class="legendsymbols"><g class="legendpoints"><path class="scatterpts" transform="translate(20,0)" d="M8,0A8,8 0 1,1 0,-8A8,8 0 0,1 8,0Z" style="opacity: 1; stroke-width: 0px; fill: rgb(25, 211, 243); fill-opacity: 1;"/></g></g></g><rect class="legendtoggle" x="0" y="-13.200000000000001" width="163.328125" height="26.400000000000002" style="fill: rgb(0, 0, 0); fill-opacity: 0;"/></g></g><g class="groups" transform=""><g class="traces" transform="translate(0,99.60000000000001)" style="opacity: 1;"><text class="legendtext" text-anchor="start" x="40" y="7.0200000000000005" style="font-family: 'Open Sans', verdana, arial, sans-serif; font-size: 18px; fill: rgb(42, 63, 95); fill-opacity: 1; white-space: pre;">SEEC, DL/FG</text><g class="layers" style="opacity: 1;"><g class="legendfill"/><g class="legendlines"><path class="js-line" d="M5,0h30" style="fill: none; stroke: rgb(171, 99, 250); stroke-opacity: 1; stroke-dasharray: 5px, 5px; stroke-width: 5px;"/></g><g class="legendsymbols"><g class="legendpoints"><path class="scatterpts" transform="translate(20,0)" d="M10.4,0L0,10.4L-10.4,0L0,-10.4Z" style="opacity: 1; stroke-width: 0px; fill: rgb(171, 99, 250); fill-opacity: 1;"/></g></g></g><rect class="legendtoggle" x="0" y="-13.200000000000001" width="163.328125" height="26.400000000000002" style="fill: rgb(0, 0, 0); fill-opacity: 0;"/></g></g><g class="groups" transform=""><g class="traces" transform="translate(0,126.00000000000001)" style="opacity: 1;"><text class="legendtext" text-anchor="start" x="40" y="7.0200000000000005" style="font-family: 'Open Sans', verdana, arial, sans-serif; font-size: 18px; fill: rgb(42, 63, 95); fill-opacity: 1; white-space: pre;">SEEC, DL/IS/FG</text><g class="layers" style="opacity: 1;"><g class="legendfill"/><g class="legendlines"><path class="js-line" d="M5,0h30" style="fill: none; stroke: rgb(171, 99, 250); stroke-opacity: 1; stroke-dasharray: 15px, 15px; stroke-width: 5px;"/></g><g class="legendsymbols"><g class="legendpoints"><path class="scatterpts" transform="translate(20,0)" d="M8,8H-8V-8H8Z" style="opacity: 1; stroke-width: 0px; fill: rgb(171, 99, 250); fill-opacity: 1;"/></g></g></g><rect class="legendtoggle" x="0" y="-13.200000000000001" width="163.328125" height="26.400000000000002" style="fill: rgb(0, 0, 0); fill-opacity: 0;"/></g></g><g class="groups" transform=""><g class="traces" transform="translate(0,152.4)" style="opacity: 1;"><text class="legendtext" text-anchor="start" x="40" y="7.0200000000000005" style="font-family: 'Open Sans', verdana, arial, sans-serif; font-size: 18px; fill: rgb(42, 63, 95); fill-opacity: 1; white-space: pre;">SEEC, SL</text><g class="layers" style="opacity: 1;"><g class="legendfill"/><g class="legendlines"><path class="js-line" d="M5,0h30" style="fill: none; stroke: rgb(171, 99, 250); stroke-opacity: 1; stroke-dasharray: 25px, 25px; stroke-width: 5px;"/></g><g class="legendsymbols"><g class="legendpoints"><path class="scatterpts" transform="translate(20,0)" d="M0,4.53l4.53,4.53l4.53,-4.53l-4.53,-4.53l4.53,-4.53l-4.53,-4.53l-4.53,4.53l-4.53,-4.53l-4.53,4.53l4.53,4.53l-4.53,4.53l4.53,4.53Z" style="opacity: 1; stroke-width: 0px; fill: rgb(171, 99, 250); fill-opacity: 1;"/></g></g></g><rect class="legendtoggle" x="0" y="-13.200000000000001" width="163.328125" height="26.400000000000002" style="fill: rgb(0, 0, 0); fill-opacity: 0;"/></g></g></g><rect class="scrollbar" rx="20" ry="3" width="0" height="0" x="0" y="0" style="fill: rgb(128, 139, 164); fill-opacity: 1;"/></g><g class="g-gtitle"/><g class="g-xtitle" transform="translate(0,-5.899999999999977)"><text class="xtitle" x="539" y="499.9" text-anchor="middle" style="font-family: 'Open Sans', verdana, arial, sans-serif; font-size: 22px; fill: rgb(42, 63, 95); opacity: 1; font-weight: normal; white-space: pre;">Parallel AES Circuits</text></g><g class="g-ytitle" transform="translate(23.072265625,0)"><text class="ytitle" transform="rotate(-90,0.9281249999999943,210.5)" x="0.9281249999999943" y="210.5" text-anchor="middle" style="font-family: 'Open Sans', verdana, arial, sans-serif; font-size: 22px; fill: rgb(42, 63, 95); opacity: 1; font-weight: normal; white-space: pre;">Peak Memory (MB)</text></g></g></svg>