<?xml version="1.0" encoding="UTF-8" standalone="no"?>
<!-- Creator: CorelDRAW X6 -->

<svg
   xmlns:dc="http://purl.org/dc/elements/1.1/"
   xmlns:cc="http://creativecommons.org/ns#"
   xmlns:rdf="http://www.w3.org/1999/02/22-rdf-syntax-ns#"
   xmlns:svg="http://www.w3.org/2000/svg"
   xmlns="http://www.w3.org/2000/svg"
   xmlns:sodipodi="http://sodipodi.sourceforge.net/DTD/sodipodi-0.dtd"
   xmlns:inkscape="http://www.inkscape.org/namespaces/inkscape"
   xml:space="preserve"
   width="139.79961mm"
   height="50.989849mm"
   version="1.1"
   style="clip-rule:evenodd;fill-rule:evenodd;image-rendering:optimizeQuality;shape-rendering:geometricPrecision;text-rendering:geometricPrecision"
   viewBox="0 0 13979.96 5099.0002"
   id="svg889"
   sodipodi:docname="ENCRYPTO_bgtransparent.svg"
   inkscape:version="0.92.4 5da689c313, 2019-01-14"
   inkscape:export-filename="/mnt/data/manjaro/Downloads/logo/export/ENCRYPTO.png"
   inkscape:export-xdpi="308.87"
   inkscape:export-ydpi="308.87"><metadata
     id="metadata893"><rdf:RDF><cc:Work
         rdf:about=""><dc:format>image/svg+xml</dc:format><dc:type
           rdf:resource="http://purl.org/dc/dcmitype/StillImage" /><dc:title></dc:title></cc:Work></rdf:RDF></metadata><sodipodi:namedview
     pagecolor="#ffffff"
     bordercolor="#666666"
     borderopacity="1"
     objecttolerance="10"
     gridtolerance="10"
     guidetolerance="10"
     inkscape:pageopacity="0"
     inkscape:pageshadow="2"
     inkscape:window-width="1916"
     inkscape:window-height="1037"
     id="namedview891"
     showgrid="false"
     inkscape:zoom="2"
     inkscape:cx="258.18797"
     inkscape:cy="97.464702"
     inkscape:window-x="1920"
     inkscape:window-y="881"
     inkscape:window-maximized="0"
     inkscape:current-layer="svg889"
     fit-margin-left="0.3"
     fit-margin-bottom="0.3"
     fit-margin-right="0.3"
     fit-margin-top="0.3" /><defs
     id="defs876" /><path
     style="fill:#424242;fill-opacity:1;fill-rule:nonzero;stroke-width:0.99999994"
     d="m 8084.9986,3583.9987 v 0.9816 c -147.9999,0 -261.0183,119.9947 -261.0183,267.9949 0,147.9999 113.0184,268.0464 261.0183,268.0464 69.0001,0 125.9571,-22.0075 158.9571,-48.0077 l -11.9888,-62.0119 c -36.0001,31 -88.9863,51.0049 -145.9864,51.0049 -112.9999,0 -201.0218,-96.0136 -201.0218,-210.0136 0,-114 88.0219,-207.9983 201.0218,-207.9983 56,0 108.9864,20.0229 145.9864,50.0228 l 11.9888,-62.0119 c -33.9999,-25.9999 -90.9571,-48.0075 -158.9571,-48.0075 z m -561.0009,8.01 -193.9939,516.9725 h 63.9754 l 48.0077,-126.9694 h 233.9916 l 48.0075,126.9694 h 62.9938 l -193.9939,-516.9725 z m -1767.0293,5.0126 v 511.9599 h 61.0301 v -172.9615 h 148.0017 c 95,0 169.9643,-74.0341 169.9643,-169.0341 0,-96.0001 -74.9643,-169.9643 -169.9643,-169.9643 z m 480.0239,0 v 511.9599 h 60.9784 v -202.9858 h 139.9917 l 113.0169,202.9858 h 68.0063 l -118.0294,-207.9983 c 66,-17.9999 112.035,-74.0018 112.035,-148.0017 0,-89.0001 -67.0118,-155.9599 -156.0118,-155.9599 z m 489.9973,0 v 511.9599 h 60.9785 v -511.9599 z m 154.9781,0 184.0203,511.9599 h 68.9882 l 184.0204,-511.9599 h -64.0272 -0.9816 l -139.0102,390.9849 -14.986,57.9812 -15.0379,-57.9812 -138.9585,-390.9849 z m 1400.022,2.9972 185.9841,337.9649 v 173.995 h 61.03 v -172.9615 l 185.9841,-338.9984 h -65.991 l -140.0435,253.9904 -9.9735,22.0142 -10.0254,-23.0477 -139.992,-252.9569 z m -2463.9912,55.9656 h 148.0017 c 63.0001,0 111.9831,49.0015 111.9831,111.0015 0,62.9999 -48.983,112.0347 -111.9831,112.0347 h -148.0017 z m 478.9903,0 h 159.0088 c 55.0001,0 96.997,41.9972 96.997,96.9971 0,54.9999 -41.9969,96.997 -96.997,96.997 h -159.0088 z m 1261.9938,1.0345 11.0072,39.9977 83.9745,226.9635 h -190.9966 l 85.0079,-226.9635 z"
     id="path1260"
     inkscape:connector-curvature="0" /><path
     id="path1082"
     style="fill:#00689d;fill-opacity:1"
     d="m 6535.9787,1355.0002 v -75 l 151,172 -151,172 v -75 h -514 v -193 h 514 z m -370,450 h 370 v 193 h -370 v 75 l -151,-172 151,-172 v 75 z m 370,467 v -75 l 151,172 -151,172 v -75 h -514 v -193 h 514 z m -582,-917 v 1111 h -200 v -1111 z m 1613,755 -2,-34 v -721 h 200 v 1111 h -167 l -581,-755 2,34 v 721 h -200 v -1111 h 167 z"
     inkscape:connector-curvature="0" /><path
     id="path881"
     style="fill:#00689d;fill-opacity:1"
     d="m 9348.9787,3658.0002 v -59 h -354 v 512 h 354 v -59 h -293 v -177 h 265 v -57 h -265 v -161 h 293 z m 477,-59 v 364 l 2,45 -312,-409 h -53 v 512 h 61 v -369 l -2,-40 312,409 h 53 v -512 h -60 z m 415.0003,227 v 58 h 145 v 139 c -31,26 -76,43 -127,43 -117,0 -205,-97 -205,-211 0,-114 88,-210 205,-210 62,0 113,23 150,45 l 12,-59 c -36,-21 -92,-45 -162,-45 -151,0 -264.9999,117 -264.9999,268 0,151 113.9999,268 264.9999,268 68,0 140,-28 187,-74 v -224 h -205 z m 380,-227 h -61 v 512 h 61 z m 507,0 v 364 l 2,45 -312,-409 h -53 v 512 h 61 v -369 l -2,-40 312,409 h 53 v -512 h -60 z m 557,59 v -59 h -354 v 512 h 354 v -59 h -293 v -177 h 265 v -57 h -265 v -161 h 293 z m 467,0 v -59 h -354 v 512 h 354 v -59 h -293 v -177 h 265 v -57 h -265 v -161 h 293 z m 666,-59 h -61 v 512 h 61 z m 507,0 v 364 l 2,45 -312,-409 h -53 v 512 h 61 v -369 l -2,-40 312,409 h 53 v -512 h -60 z m 415,228 v 58 h 145 v 139 c -31,26 -76,43 -127,43 -117,0 -205,-97 -205,-211 0,-114 88,-210 205,-210 62,0 113,23 150,45 l 12,-59 c -36,-21 -92,-45 -162,-45 -151,0 -265,117 -265,268 0,151 114,268 265,268 68,0 140,-28 187,-74 v -224 h -205 z M 12266.978,3598.985 v 512.0115 h 60.978 V 3908.0108 H 12468 l 112.965,202.9857 h 68.006 l -117.977,-207.9983 c 66,-17.9999 111.983,-74.0018 111.983,-148.0017 0,-89 -67.012,-156.0115 -156.012,-156.0115 z m 59.996,59.0147 h 159.009 c 55,0 96.997,41.9969 96.997,96.9968 0,55.0002 -41.997,96.9971 -96.997,96.9971 h -159.009 z"
     inkscape:connector-curvature="0" /><path
     inkscape:connector-curvature="0"
     style="fill:#424242;fill-opacity:1;fill-rule:nonzero;stroke-width:0.99999994"
     d="m 2358.9746,943.99692 c -497.0001,0 -947.0011,200.99788 -1273.0011,526.99788 -325.00004,326 -526.99784,776.0011 -526.99784,1273.0009 0,497.0001 200.9978,947.0011 526.99784,1273.0013 326,324.9998 776.001,526.9976 1273.0011,526.9976 496.9998,0 947.0008,-200.9977 1273.001,-526.9976 325,-326.0002 526.9978,-776.0012 526.9978,-1273.0013 0,-496.9998 -200.9979,-947.0009 -526.9978,-1273.0009 -326.0002,-325 -776.0012,-526.99788 -1273.001,-526.99788 z m 0,178.02588 c 448.9998,0 853.9953,180.9596 1147.9953,474.9596 292.9999,294 475.0111,699.9953 475.0111,1147.9952 0,448.0002 -181.011,854.0471 -475.0111,1148.0472 -294,292.9999 -699.9954,474.9594 -1147.9953,474.9594 -448.0002,0 -853.9955,-180.9594 -1147.9955,-474.9594 -292.99997,-294.0001 -475.01114,-700.047 -475.01114,-1148.0472 0,-447.9999 181.01117,-853.9952 475.01114,-1147.9952 294,-293.0001 699.9953,-474.9596 1147.9955,-474.9596 z"
     id="path1348" /><path
     inkscape:connector-curvature="0"
     style="fill:#00689d;fill-opacity:1"
     d="m 3499.9787,1160.0002 293,-206.00008 40,-28 34,34 275,275.00008 34,34 -28,40 -137,194 c 22,30 44,61 66,93 21,32 42,65 61,97 l 231,-52 47,-11 19,45 149,360 18,45 -41,26 -201,126 c 9,37 18,73 25,109 7,36 13,73 19,110 l 234,40 48,8 v 49 389 48 l -48,8 -234,40 c -5,36 -11,72 -18,108 -7,35 -15,71 -24,107 l 201,126 41,26 -18,45 -148,360 -18,45 -47,-10 -232,-52 c -20,34 -41,67 -62,99 -22,33 -44,64 -67,95 l 137,194 28,40 -34,34 -275,275 -34,34 -40,-28 -194,-137 c -32,24 -64,46 -96,68 -33,22 -66,43 -100,63 l 51,232 10,47 -45,18 -360,147 -45,18 -26,-41 -126,-201 c -36,9 -71,17 -106,24 -36,7 -71,13 -108,18 l -40,234 -8,48 h -48 -389 -49 l -8,-48 -40,-234 c -39,-6 -78,-12 -118,-20 v 0 c -39,-8 -78,-17 -117,-27 l -128,199 -26,41 -45,-19 -359,-151 -45,-19 11,-47 54,-231 c -31,-18 -61,-38 -90,-57 -30,-20 -59,-41 -87,-62 l -194.00007,137 -39.99997,28 -34,-34 -275,-275 -34,-34 28,-40 137,-194 c -22,-30 -44,-61 -66,-93 -22,-32 -42,-65 -61,-97 l -231,52 -47,11 -19,-45 -149,-360 -18,-45 41,-26 201,-126 c -9,-37 -18,-73 -25,-109 -7,-36 -13,-73 -19,-111 l -234.000004,-40 -48,-8 v -48 -389 -49 l 48,-8 234.000004,-40 c 5,-36 11,-72 18,-108 7,-35 15,-71 24,-107 l -201,-126 -41,-26 18,-45 148,-360 18,-45 47,11 232,52 c 20,-33 40,-67 62,-99 22,-33 44,-64 67,-95 l -137,-194 -28,-40 34,-34 275,-275.00008 34,-34 39.99997,28 292.00007,208.00008 -95,73 -223.00004,-159 -207,207 133,189 25,35 -26,34 c -31,40 -61,80 -88,122 -28,42 -54,85 -79,129 l -21,37 -42,-9 -226,-50 -111,271 196,123 36,23 -11,41 c -12,45 -23,91 -33,140 -9,47 -17,94 -22,142 l -5,43 -42,7 -228,39 v 292 l 228,39 42,7 5,43 c 6,49 14,97 23,145 10,49 21,96 34,142 l 11,41 -36,23 -195,123 112,270 225,-51 42,-9 21,37 c 25,44 51,86 78,127 27,40 56,80 87,120 l 26,34 -25,35 -133,189 207,207 189.00004,-133 35,-25 34,26 c 37,29 75,57 114,83 39,26 79,51 120,75 l 37,21 -10,42 -52,225 270,114 124,-194 23,-36 41,12 c 49,14 98,26 149,36 v 0 c 48,10 99,18 152,24 l 43,5 7,42 39,228 h 292 l 39,-228 7,-42 43,-5 c 48,-6 95,-13 142,-22 49,-10 95,-20 139,-32 l 41,-11 23,36 122,196 271,-111 -50,-226 -9,-42 37,-21 c 45,-25 88,-51 130,-79 43,-28 83,-58 123,-89 l 34,-26 35,25 189,133 207,-207 -133,-189 -25,-35 26,-34 c 31,-40 61,-80 88,-122 28,-42 54,-85 79,-129 l 21,-37 42,9 226,50 111,-271 -196,-123 -36,-23 11,-41 c 12,-45 23,-91 33,-140 9,-47 17,-94 22,-142 l 5,-43 42,-7 228,-39 v -292 l -228,-39 -42,-7 -5,-43 c -6,-49 -14,-97 -23,-145 -10,-49 -21,-97 -34,-142 l -11,-41 36,-23 195,-123 -112,-270 -226,51 -42,9 -21,-37 c -25,-44 -51,-86 -78,-127 -27,-40 -56,-80 -87,-120 l -26,-34 25,-35 133,-189 -207,-207 -224,158 -96,-74 z"
     id="path1098" /><path
     id="path1092"
     style="fill:#00689d;fill-opacity:1"
     d="m 3012.9787,1632.0002 v -150 l 302,344 -302,344 v -150 h -1030 v -387 h 1030 z m -741,901 h 741 v 387 h -741 v 150 l -302,-344 302,-344 v 150 z m 741,935 v -150 l 302,344 -302,344 v -150 h -1030 v -387 h 1030 z m -1164,-1836 v 2223 h -400 v -2223 z"
     inkscape:connector-curvature="0" /><path
     inkscape:connector-curvature="0"
     style="fill:#424242;fill-opacity:1;fill-rule:nonzero"
     d="m 1217.9787,1161.0002 c 3,-311.00011 130,-592.00011 334,-797.00011 206,-206 492,-334 807,-334 315,0 600,128 807,334 204,204 331,486 334,797.00011 -60,-43 -122,-82 -186,-118 -29,-215.00011 -128,-407.00011 -274,-553.00011 -174,-174 -415,-282 -681,-282 -266,0 -507,108 -681,282 -146,146 -245,338 -274,553.00011 -64,36 -127,75 -186,118 z"
     id="path1346" /><path
     id="path1322"
     style="fill:#424242;fill-opacity:1;fill-rule:nonzero"
     d="m 12428.979,1547.0002 v 917 h -200 v -917 h -354 v -193 h 907 v 193 h -354 z m 948.012,-218.0126 c -327,0 -568.029,257.9998 -568.029,580.9998 0,321.9999 242.029,580.9997 568.029,580.9997 327,0 567.977,-257.9996 567.977,-580.9997 0,-322 -241.977,-580.9998 -567.977,-580.9998 z m 0,192.0301 c 216,0 367.007,181.0032 367.007,390.0032 0,210.0001 -151.007,390.0033 -367.007,390.0033 -216,0 -367.007,-181.0033 -367.007,-390.0033 0,-209 152.007,-390.0032 367.007,-390.0032 z m -2919.012,568.9825 v 374 h -200 v -377 l -394.0003,-733 h 222.0003 l 265,495 8,18 8,-18 264,-496 h 222 l -394,736 z m -1963.0003,-761 c 111,0 238,27 331,91 l 11,7 -43,206 -25,-19 c -75,-59 -180,-89 -274,-89 -209,0 -367,181 -367,385 0,204 157,388 367,388 96,0 199,-30 276,-89 l 25,-19 41,205 -10,7 c -87,66 -225,91 -332,91 -324,0 -566,-262 -566,-581 0,-319 242,-581 566,-581 z m 2678.0003,849 v 286 h -200 v -286 z m -199.983,-824.0012 v 757.0104 h 464.986 c 212,0 381.012,-165.0142 381.012,-378.0143 0,-211 -170.012,-378.9961 -381.012,-378.9961 z m 199.989,193.9939 h 264.997 c 104,0 185.984,82.984 185.984,185.984 0,103 -83.984,184.0203 -185.984,184.0203 h -264.997 z m -1986.0063,631.0073 v 286 h -200 v -286 z m 461,-43 190,330 h -232 l -6,-10 c -64,-117 -87,-159 -151,-276 h 3 c 70,0 136,-16 195,-43 z m -659.9834,-781.0193 v 757.0104 h 464.986 c 211.9999,0 381.0114,-165.0142 381.0114,-378.0144 0,-210.9999 -170.0114,-378.996 -381.0114,-378.996 z m 199.9883,193.9939 h 264.9977 c 103.9998,0 185.9838,83.0357 185.9838,186.0357 0,103 -83.984,183.9685 -185.9838,183.9685 h -264.9977 z"
     inkscape:connector-curvature="0" /><path
     style="fill:#424242;fill-opacity:1;fill-rule:nonzero;stroke-width:0.99999994"
     d="m 6014.9895,2761.9792 v 1.0345 c -147.9999,0 -261.0183,119.995 -261.0183,267.9949 0,147.9999 113.0184,267.9949 261.0183,267.9949 69.0001,0 126.009,-22.0076 159.009,-48.0077 l -12.0407,-62.0119 c -35.9998,31 -88.9862,51.0049 -145.9864,51.0049 -112.9999,0 -200.9702,-95.962 -200.9702,-209.9621 0,-114 87.9703,-208.0499 200.9702,-208.0499 56,0 108.9864,20.023 145.9864,50.0231 l 12.0407,-62.0122 c -34.0001,-25.9998 -91.009,-48.0074 -159.009,-48.0074 z m 3168.9635,0 c -151,0 -264.9977,117.0465 -264.9977,268.0465 0,151 113.9977,267.9949 264.9977,267.9949 67.9999,0 140.0174,-28.001 187.0175,-74.001 v -224.0179 h -205.0011 l -0.9816,2.0162 v 57.9809 h 145.0046 v 139.0101 c -31,25.9999 -76.0391,42.995 -126.0392,42.995 -117.0001,0 -204.9495,-96.9955 -204.9495,-210.9955 0,-114.0001 87.9494,-210.0137 204.9495,-210.0137 62,0 113.0171,23.0104 150.0171,45.0103 l 11.9888,-59.0147 c -35.9998,-20.9998 -92.0059,-45.0103 -162.0059,-45.0103 z m -641.9782,1.0345 c -149,0 -262.0005,117.995 -262.0005,267.9949 0,151 113.0005,267.9949 262.0005,267.9949 149,0 261.0183,-117.9947 261.0183,-267.9949 0,-151 -112.0183,-267.9949 -261.0183,-267.9949 z m 1648.0182,5.9947 -193.9939,516.9725 h 63.9749 l 48.008,-126.9694 h 233.992 l 48.007,126.9694 h 62.994 l -193.994,-516.9725 z m 2332.991,0 -193.994,516.9725 h 63.975 l 48.008,-126.9694 h 233.992 l 48.007,126.9694 h 62.994 l -193.994,-516.9725 z m -2996.9838,5.0126 v 511.9599 h 60.9784 v -202.9857 h 139.992 l 113.0166,202.9847 h 68.0059 l -118.0287,-207.9983 c 65.9999,-18 112.0347,-74.0018 112.0347,-148.0018 0,-89 -67.0115,-155.9599 -156.0115,-155.9599 z m 1057.9748,0 v 511.9599 h 60.978 v -172.9615 h 148.002 c 95,0 170.016,-74.0341 170.016,-169.0341 0,-96.0001 -75.016,-169.9643 -170.016,-169.9643 z m 518.988,0 v 511.9599 h 61.03 v -234.9745 h 294.97 v 234.9735 h 61.03 v -511.96 h -61.03 v 219.0053 h -294.97 v -219.0053 z m 543.999,0 186.036,337.9649 v 173.995 h 60.978 v -172.9615 l 185.984,-338.9984 h -65.991 l -139.992,253.9904 -9.973,22.0142 -10.025,-23.0477 -139.992,-252.9569 z m 1271.037,0 v 511.9599 h 60.979 v -368.9707 l -2.016,-39.0159 312.023,409.0201 h 52.968 v -512.0116 h -59.996 l -0.982,-0.9816 v 363.9582 l 2.016,45.0103 -312.023,-408.9685 z m 606.994,0 v 511.9599 h 165.003 c 148,0 259.985,-106.9724 259.985,-254.9723 0,-147.9999 -113.018,-256.9876 -261.018,-256.9876 z m -7209.039,0.9816 v 512.0115 h 61.03 v -203.0373 h 139.992 l 113.0166,203.0373 h 68.0066 l -118.0294,-207.9983 c 65.9999,-17.9999 111.9831,-74.0015 111.9831,-148.0017 0,-89 -66.9599,-156.0115 -155.9599,-156.0115 z m 456.0459,0 185.9841,338.0165 v 173.995 h 60.9784 V 3114.001 l 186.0358,-338.9984 h -67.0248 l -139.9917,253.9904 -8.9919,22.0142 -10.0251,-22.9961 -139.992,-253.0085 z m 561.0011,0 v 512.0115 h 60.9782 V 3114.001 h 148.0018 c 94.9999,0 170.0162,-73.9825 170.0162,-168.9825 0,-95.9998 -75.0163,-170.0159 -170.0162,-170.0159 z m 464.986,0 v 59.0147 h 176.0103 v 452.9968 h 60.9785 v -452.9968 h 176.0103 v -59.0147 z m 743.9878,45.9921 c 114.9999,0 199.9883,93.9956 199.9883,210.9955 0,116.0001 -85.9885,210.9955 -199.9883,210.9955 -116,0 -201.022,-93.9956 -201.022,-210.9955 0,-116 86.0218,-210.9955 201.022,-210.9955 z m 5043.9962,11.0072 h 105.007 c 114,0 199.988,82.9911 199.988,196.9911 0,114.9999 -85.988,196.9911 -199.988,196.9911 h -105.007 z m -3999.9743,0.9816 h 158.9571 c 55.0002,0 97.0487,41.9969 97.0487,96.9968 0,55.0002 -42.0485,96.9971 -97.0487,96.9971 h -158.9571 z m 1058.9563,0 h 148.002 c 63,0 112.035,49.0013 112.035,111.0013 0,62.9998 -49.035,112.0347 -112.035,112.0347 h -148.002 z m -4268.9509,1.0346 h 158.9574 c 54.9999,0 96.9968,41.9969 96.9968,96.9968 0,55.0001 -41.9969,96.997 -96.9968,96.997 h -158.9574 z m 1017.9771,0 h 148.0018 c 63.0001,0 111.9833,49.0012 111.9833,111.0012 0,63.0001 -48.9832,111.9831 -111.9833,111.9831 h -148.0018 z m 2830.9988,0 11.007,39.9977 83.974,226.9634 h -190.996 l 85.008,-226.9634 z m 2332.991,0 11.007,39.9977 84.026,226.9634 h -191.048 l 85.008,-226.9634 z"
     id="path1318"
     inkscape:connector-curvature="0" /></svg>