<?xml version="1.0" encoding="UTF-8" standalone="no"?>
<svg
   width="361.91998pt"
   height="162.959991pt"
   viewBox="0 0 361.91998 162.959991"
   version="1.1"
   id="svg93"
   xmlns="http://www.w3.org/2000/svg"
   xmlns:svg="http://www.w3.org/2000/svg">
  <defs
     id="defs5">
    <clipPath
       id="clip-0">
      <path
         clip-rule="nonzero"
         d="M 180 50 L 361.921875 50 L 361.921875 141 L 180 141 Z M 180 50 "
         id="path2" />
    </clipPath>
  </defs>
  <path
     fill-rule="nonzero"
     fill="rgb(0%, 0%, 0%)"
     fill-opacity="1"
     stroke-width="6.023625"
     stroke-linecap="butt"
     stroke-linejoin="miter"
     stroke="rgb(0%, 0%, 0%)"
     stroke-opacity="0.2478"
     stroke-miterlimit="4"
     d="M 21.010687 286.950593 C 21.010687 296.254208 25.912726 312.288098 35.912885 335.052263 C 45.913044 357.618479 61.991732 381.372391 83.952866 405.918099 C 105.914 430.661757 130.620276 442.736662 158.071693 441.944865 C 185.327029 441.944865 207.288163 434.422793 223.955096 418.98275 C 240.622028 403.740657 249.249616 382.362137 250.033942 355.045139 C 248.661371 342.376386 247.680964 335.250213 247.092719 334.062517 C 247.092719 332.083024 241.602435 316.642982 231.014032 287.940339 C 220.425628 259.237696 209.248979 226.971966 198.07233 190.945201 C 186.6996 154.918435 181.405398 126.413741 181.993643 105.035221 C 181.993643 76.332578 186.6996 56.339702 195.915433 45.056595 C 205.327348 33.575537 219.249138 27.637059 238.072967 27.043212 C 253.367329 27.043212 267.681282 30.606298 281.014828 37.930421 C 294.348374 45.254544 304.740696 52.974565 311.995713 61.090485 C 319.250731 69.008455 328.270482 80.093614 339.054968 93.950062 C 339.054968 94.741859 340.62362 101.274185 343.957007 113.942938 C 347.290393 126.61169 351.99635 146.406617 358.074879 172.931818 C 363.957325 199.654968 370.428017 224.398626 377.094789 246.964842 C 402.38931 346.929219 416.3111 399.385773 419.056242 403.938607 C 427.68383 421.951989 441.997784 431.057655 461.998102 431.057655 C 470.625691 431.057655 477.684627 428.682264 482.978829 423.931482 C 488.273031 419.378649 491.99858 415.419664 493.959396 412.054526 C 495.920211 408.689389 496.704537 405.72015 495.920211 402.94886 C 495.920211 394.239093 479.645442 324.363003 447.095904 192.924693 C 414.350285 61.684333 395.722537 -10.369199 391.01658 -23.037952 C 372.388832 -78.265796 340.035376 -122.408481 293.95621 -155.070109 C 248.073127 -187.731738 201.993962 -204.359476 155.914796 -204.953323 C 125.914319 -204.953323 99.63939 -197.629201 77.090012 -182.980955 C 54.344551 -168.33271 42.971821 -146.360342 42.971821 -117.063851 C 42.971821 -102.415606 45.3248 -89.944802 50.030757 -80.047339 C 54.736714 -69.951927 61.011324 -62.627804 69.050668 -58.074971 C 77.090012 -53.324189 83.756784 -49.959051 89.050986 -47.979559 C 94.345188 -46.000066 100.031553 -45.01032 105.914 -45.01032 C 135.326233 -45.01032 150.03235 -59.064717 150.03235 -86.975563 C 150.03235 -100.238164 145.914637 -111.91717 138.071375 -122.012583 C 130.032031 -131.910046 122.384851 -138.640321 114.933751 -142.005458 C 107.678734 -145.370596 103.36494 -146.95419 101.992369 -146.95419 L 99.051146 -147.943936 C 100.423716 -151.309073 106.698326 -155.268059 118.071056 -160.018841 C 129.247705 -164.571674 140.620435 -166.947065 151.993165 -166.947065 L 160.032509 -166.947065 C 171.405239 -166.947065 180.032827 -166.353217 185.915274 -164.967572 C 208.07249 -159.029095 228.26889 -146.360342 247.092719 -126.961314 C 265.720467 -107.760236 280.03442 -86.975563 290.034579 -65.003195 C 300.034739 -43.030827 307.681919 -24.423596 312.976121 -8.983554 C 318.270323 6.258539 321.015465 16.353952 321.015465 20.906785 L 314.936937 16.947799 C 311.015306 14.374459 304.740696 10.613423 295.917026 6.06059 C 287.289438 1.309808 278.661849 -2.649178 270.034261 -6.014315 C 256.700715 -9.379453 243.759333 -10.963047 231.014032 -10.963047 C 200.425309 -10.963047 173.366055 -3.638924 150.03235 11.009321 C 126.698645 25.657567 111.404284 49.411478 103.953184 82.073107 C 103.36494 86.62594 102.972777 96.919301 102.972777 112.953191 C 102.972777 150.95945 114.73767 200.644714 138.071375 262.008986 C 161.40508 323.373257 172.973892 362.369261 172.973892 378.996999 C 172.973892 379.590847 172.973892 380.382644 172.973892 380.976492 C 172.973892 386.91497 172.973892 391.071904 172.973892 393.051397 C 172.973892 395.03089 171.601321 397.406281 169.05226 399.979621 C 166.307119 402.750911 162.581569 403.938607 158.071693 403.938607 L 153.953981 403.938607 C 138.65962 403.938607 124.737829 397.60423 111.992528 384.935477 C 99.247227 372.266725 89.247068 358.608226 81.99205 343.95998 C 74.737033 329.311735 69.050668 315.257337 64.932955 301.994737 C 61.011324 288.732136 58.266182 281.408013 57.089693 280.022369 C 55.717122 278.636724 50.42292 278.042876 41.011006 278.042876 L 27.089215 278.042876 C 22.971503 282.001861 21.010687 284.9711 21.010687 286.950593 Z M 21.010687 286.950593 "
     transform="matrix(0.0199216, 0, 0, -0.0197336, 270.374403, 152.170378)"
     id="path7" />
  <path
     fill="none"
     stroke-width="2"
     stroke-linecap="butt"
     stroke-linejoin="miter"
     stroke="rgb(42.349243%, 55.688477%, 74.899292%)"
     stroke-opacity="1"
     stroke-miterlimit="10"
     d="M 365.998997 175.642487 L 365.998997 185.639077 "
     transform="matrix(0.751037, 0, 0, 0.751037, 0, 0)"
     id="path9" />
  <g
     clip-path="url(#clip-0)"
     id="g13">
    <path
       fill="none"
       stroke-width="2"
       stroke-linecap="butt"
       stroke-linejoin="miter"
       stroke="#82b366"
       stroke-opacity="1"
       stroke-miterlimit="4"
       d="m 266.54801,78.641232 h 198.90198 c 0.95701,0 1.90362,0.09362 2.83982,0.280861 0.93621,0.18204 1.84641,0.457701 2.7306,0.826982 0.87899,0.364079 1.71637,0.811377 2.51215,1.341894 0.79577,0.530516 1.52913,1.133848 2.20528,1.809996 0.67615,0.676148 1.27948,1.409509 1.81,2.205283 0.53052,0.795775 0.97781,1.633158 1.34709,2.517352 0.36408,0.878993 0.63974,1.789192 0.82699,2.725397 0.18724,0.941406 0.27566,1.888014 0.27566,2.839822 V 161.0897 c 0,0.95701 -0.0884,1.90361 -0.27566,2.83982 -0.18725,0.9362 -0.46291,1.8464 -0.82699,2.7306 -0.36928,0.87899 -0.81657,1.72158 -1.34709,2.51215 -0.53052,0.79577 -1.13385,1.52913 -1.81,2.20528 -0.67615,0.67615 -1.40951,1.27948 -2.20528,1.81 -0.79578,0.53051 -1.63316,0.97781 -2.51215,1.34709 -0.88419,0.36408 -1.79439,0.63974 -2.7306,0.82698 -0.9362,0.18725 -1.88281,0.28087 -2.83982,0.28087 H 266.54801 c -0.95181,0 -1.89842,-0.0936 -2.83462,-0.28087 -0.94141,-0.18724 -1.84641,-0.4629 -2.7306,-0.82698 -0.8842,-0.36928 -1.72158,-0.81658 -2.51735,-1.34709 -0.79578,-0.53052 -1.52914,-1.13385 -2.20529,-1.81 -0.67615,-0.67615 -1.27948,-1.40951 -1.81,-2.20528 -0.53051,-0.79057 -0.97781,-1.63316 -1.34189,-2.51215 -0.36408,-0.8842 -0.63974,-1.7944 -0.82698,-2.7306 -0.18724,-0.93621 -0.28086,-1.88281 -0.28086,-2.83982 V 93.188819 c 0,-0.951808 0.0936,-1.898416 0.28086,-2.839822 0.18724,-0.936205 0.4629,-1.846404 0.82698,-2.725397 0.36408,-0.884194 0.81138,-1.721577 1.34189,-2.517352 0.53052,-0.795774 1.13385,-1.529135 1.81,-2.205283 0.67615,-0.676148 1.40951,-1.27948 2.20529,-1.809996 0.79577,-0.530517 1.63315,-0.977815 2.51735,-1.341894 0.88419,-0.369281 1.78919,-0.644942 2.7306,-0.826982 0.9362,-0.187241 1.88281,-0.280861 2.83462,-0.280861 z m 0,0"
       transform="scale(0.751037)"
       id="path11" />
  </g>
  <path
     fill="none"
     stroke-width="2"
     stroke-linecap="butt"
     stroke-linejoin="miter"
     stroke="rgb(42.349243%, 55.688477%, 74.899292%)"
     stroke-opacity="1"
     stroke-miterlimit="10"
     d="M 365.499688 35.638209 L 365.499688 55.600183 C 365.499688 62.268044 362.165757 65.601975 355.497896 65.601975 L 319.001499 65.601975 C 312.333638 65.601975 308.999708 67.77085 308.999708 72.119003 L 308.999708 78.641232 "
     transform="matrix(0.751037, 0, 0, 0.751037, 0, 0)"
     id="path15" />
  <path
     fill="none"
     stroke-width="2"
     stroke-linecap="butt"
     stroke-linejoin="miter"
     stroke="rgb(42.349243%, 55.688477%, 74.899292%)"
     stroke-opacity="1"
     stroke-miterlimit="10"
     d="M 365.499688 35.638209 L 365.499688 55.600183 C 365.499688 62.268044 368.833618 65.601975 375.501479 65.601975 L 413.001696 65.601975 C 419.664356 65.601975 422.998287 67.77085 422.998287 72.119003 L 422.998287 78.641232 "
     transform="matrix(0.751037, 0, 0, 0.751037, 0, 0)"
     id="path17" />
  <path
     fill="none"
     stroke-width="1"
     stroke-linecap="butt"
     stroke-linejoin="miter"
     stroke="rgb(42.349243%, 55.688477%, 74.899292%)"
     stroke-opacity="0.502"
     stroke-miterlimit="10"
     d="M 360.448691 124.098502 L 340.398297 124.098502 C 333.735637 124.098502 327.067776 124.082898 320.399915 124.051692 L 299.340501 123.942468 "
     transform="matrix(0.751037, 0, 0, 0.751037, 0.375519, 0.375519)"
     id="path19" />
  <path
     fill="none"
     stroke-width="1"
     stroke-linecap="butt"
     stroke-linejoin="miter"
     stroke="rgb(50.979614%, 70.199585%, 39.99939%)"
     stroke-opacity="0.502"
     stroke-miterlimit="10"
     d="M 360.448691 109.649736 C 370.081201 109.649736 374.897457 112.86404 374.897457 119.287448 C 374.897457 125.710855 370.081201 128.919958 360.448691 128.919958 Z M 360.448691 109.649736 "
     transform="matrix(0.751037, 0, 0, 0.751037, 0.375519, 0.375519)"
     id="path21" />
  <path
     fill="none"
     stroke-width="1"
     stroke-linecap="butt"
     stroke-linejoin="miter"
     stroke="rgb(42.349243%, 55.688477%, 74.899292%)"
     stroke-opacity="0.502"
     stroke-miterlimit="10"
     d="M 350.920203 102.617795 L 353.307526 102.612594 C 354.904276 102.602192 355.70005 104.583826 355.70005 108.552295 L 355.70005 111.532548 C 355.70005 113.508981 356.490623 114.491997 358.07177 114.481595 L 360.448691 114.471192 "
     transform="matrix(0.751037, 0, 0, 0.751037, 0.375519, 0.375519)"
     id="path23" />
  <path
     fill="none"
     stroke-width="1"
     stroke-linecap="butt"
     stroke-linejoin="miter"
     stroke="rgb(42.349243%, 55.688477%, 74.899292%)"
     stroke-opacity="0.502"
     stroke-miterlimit="10"
     d="M 318.808366 107.439252 L 299.298892 107.397642 "
     transform="matrix(0.751037, 0, 0, 0.751037, 0.375519, 0.375519)"
     id="path25" />
  <path
     fill="none"
     stroke-width="1"
     stroke-linecap="butt"
     stroke-linejoin="miter"
     stroke="rgb(50.979614%, 70.199585%, 39.99939%)"
     stroke-opacity="0.502"
     stroke-miterlimit="10"
     d="M 344.501996 102.617795 L 350.920203 102.617795 M 318.808366 97.811942 L 326.199186 97.811942 M 318.808366 107.439252 L 326.199186 107.439252 "
     transform="matrix(0.751037, 0, 0, 0.751037, 0.375519, 0.375519)"
     id="path27" />
  <path
     fill="none"
     stroke-width="1"
     stroke-linecap="butt"
     stroke-linejoin="miter"
     stroke="rgb(50.979614%, 70.199585%, 39.99939%)"
     stroke-opacity="0.502"
     stroke-miterlimit="10"
     d="M 322.027872 92.990486 C 325.471026 98.950992 325.471026 106.2898 322.027872 112.260708 "
     transform="matrix(0.751037, 0, 0, 0.751037, 0.375519, 0.375519)"
     id="path29" />
  <path
     fill="none"
     stroke-width="1"
     stroke-linecap="butt"
     stroke-linejoin="miter"
     stroke="rgb(50.979614%, 70.199585%, 39.99939%)"
     stroke-opacity="0.502"
     stroke-miterlimit="10"
     d="M 331.660383 92.990486 C 337.272412 93.172525 342.270707 96.922547 344.501996 102.617795 C 342.270707 108.318244 337.272412 112.078668 331.660383 112.260708 L 323.629823 112.260708 C 327.067776 106.2898 327.067776 98.950992 323.629823 92.990486 Z M 331.660383 92.990486 "
     transform="matrix(0.751037, 0, 0, 0.751037, 0.375519, 0.375519)"
     id="path31" />
  <path
     fill="none"
     stroke-width="1"
     stroke-linecap="butt"
     stroke-linejoin="miter"
     stroke="rgb(42.349243%, 55.688477%, 74.899292%)"
     stroke-opacity="0.502"
     stroke-miterlimit="10"
     d="M 417.151515 102.617795 L 432.697722 102.602192 "
     transform="matrix(0.751037, 0, 0, 0.751037, 0.375519, 0.375519)"
     id="path33" />
  <path
     fill="none"
     stroke-width="1"
     stroke-linecap="butt"
     stroke-linejoin="miter"
     stroke="rgb(50.979614%, 70.199585%, 39.99939%)"
     stroke-opacity="0.502"
     stroke-miterlimit="10"
     d="M 410.728108 102.617795 L 417.151515 102.617795 M 385.050081 97.811942 L 392.430498 97.811942 M 385.050081 107.439252 L 392.430498 107.439252 "
     transform="matrix(0.751037, 0, 0, 0.751037, 0.375519, 0.375519)"
     id="path35" />
  <path
     fill="none"
     stroke-width="1"
     stroke-linecap="butt"
     stroke-linejoin="miter"
     stroke="rgb(50.979614%, 70.199585%, 39.99939%)"
     stroke-opacity="0.502"
     stroke-miterlimit="10"
     d="M 388.259184 92.990486 C 391.702339 98.950992 391.702339 106.2898 388.259184 112.260708 "
     transform="matrix(0.751037, 0, 0, 0.751037, 0.375519, 0.375519)"
     id="path37" />
  <path
     fill="none"
     stroke-width="1"
     stroke-linecap="butt"
     stroke-linejoin="miter"
     stroke="rgb(50.979614%, 70.199585%, 39.99939%)"
     stroke-opacity="0.502"
     stroke-miterlimit="10"
     d="M 397.891695 92.990486 C 403.498524 93.172525 408.50202 96.922547 410.728108 102.617795 C 408.50202 108.318244 403.498524 112.078668 397.891695 112.260708 L 389.861135 112.260708 C 393.299089 106.2898 393.299089 98.950992 389.861135 92.990486 Z M 397.891695 92.990486 "
     transform="matrix(0.751037, 0, 0, 0.751037, 0.375519, 0.375519)"
     id="path39" />
  <path
     fill="none"
     stroke-width="1"
     stroke-linecap="butt"
     stroke-linejoin="miter"
     stroke="rgb(42.349243%, 55.688477%, 74.899292%)"
     stroke-opacity="0.502"
     stroke-miterlimit="10"
     d="M 310.450135 97.749528 L 299.340501 97.749528 "
     transform="matrix(0.751037, 0, 0, 0.751037, 0.375519, 0.375519)"
     id="path41" />
  <path
     fill="none"
     stroke-width="1"
     stroke-linecap="butt"
     stroke-linejoin="miter"
     stroke="rgb(42.349243%, 55.688477%, 74.899292%)"
     stroke-opacity="0.502"
     stroke-miterlimit="10"
     d="M 310.450135 97.749528 L 318.797964 97.697517 "
     transform="matrix(0.751037, 0, 0, 0.751037, 0.375519, 0.375519)"
     id="path43" />
  <path
     fill="none"
     stroke-width="1"
     stroke-linecap="butt"
     stroke-linejoin="miter"
     stroke="rgb(42.349243%, 55.688477%, 74.899292%)"
     stroke-opacity="0.502"
     stroke-miterlimit="10"
     d="M 308.858586 97.749528 L 308.879391 92.168705 C 308.894994 88.455092 312.234126 86.598285 318.901987 86.598285 L 360.802368 86.598285 C 367.465028 86.598285 370.798959 88.465494 370.798959 92.199912 L 370.798959 94.998125 C 370.798959 96.865335 373.175879 97.80154 377.919319 97.80154 L 385.050081 97.811942 "
     transform="matrix(0.751037, 0, 0, 0.751037, 0.375519, 0.375519)"
     id="path45" />
  <path
     fill="none"
     stroke-width="1"
     stroke-linecap="butt"
     stroke-linejoin="miter"
     stroke="rgb(42.349243%, 55.688477%, 74.899292%)"
     stroke-opacity="0.502"
     stroke-miterlimit="10"
     d="M 374.897457 119.287448 L 377.201561 119.287448 C 378.735898 119.29785 379.500465 117.316216 379.500465 113.347746 L 379.500465 110.377895 C 379.500465 108.39106 380.421067 107.408045 382.267472 107.418447 L 385.050081 107.439252 "
     transform="matrix(0.751037, 0, 0, 0.751037, 0.375519, 0.375519)"
     id="path47" />
  <path
     fill-rule="nonzero"
     fill="rgb(0%, 0%, 0%)"
     fill-opacity="1"
     stroke-width="5.931208"
     stroke-linecap="butt"
     stroke-linejoin="miter"
     stroke="rgb(0%, 0%, 0%)"
     stroke-opacity="0.2467"
     stroke-miterlimit="4"
     d="M 73.05201 646.924978 C 73.05201 653.682539 74.269077 661.405466 76.906055 670.093759 C 79.745878 678.588979 83.599922 683.029662 89.076723 683.029662 C 89.685256 683.029662 113.620903 684.574248 161.086506 688.049565 C 208.349266 691.331809 232.690601 693.262541 233.907668 694.034834 C 242.021446 694.034834 246.078335 690.945663 246.078335 684.960394 C 246.078335 678.975126 234.719045 631.28605 212.000466 542.086242 C 206.72651 519.303607 201.046865 495.941752 194.961531 472.000678 C 189.079042 448.059604 184.00793 429.910725 179.951041 417.940188 L 176.096996 399.019016 C 176.096996 397.088284 177.922597 398.05365 181.979486 401.915114 C 214.637444 428.752286 248.309624 442.074335 282.996027 442.074335 C 324.376297 442.074335 357.642789 426.628481 382.998346 395.929845 C 408.353904 365.424283 421.335949 326.616574 421.944483 280.085938 C 421.944483 205.945837 395.574703 138.949444 343.037987 78.903685 C 290.298428 19.051 233.704823 -11.068416 173.05433 -11.068416 C 139.584994 -11.068416 109.361169 1.674414 81.977167 26.967 C 54.593165 52.259587 40.596897 93.384174 39.988363 149.954615 L 39.988363 159.029055 C 39.988363 172.930324 42.625341 192.237641 47.899297 216.951008 C 53.376098 241.664375 69.603655 307.309256 96.987657 414.078724 C 130.254148 545.368486 147.090239 615.067903 147.090239 622.983904 C 147.090239 631.092977 134.311038 635.726734 108.95548 637.078246 C 105.709969 637.078246 103.072991 637.078246 101.044546 637.078246 L 95.973435 637.078246 C 89.279567 637.078246 85.019834 637.078246 82.991389 637.078246 C 80.962944 637.078246 78.731655 638.043612 76.094677 639.974344 C 73.254855 641.905075 72.240633 644.415027 73.05201 646.924978 Z M 335.938431 325.071989 L 335.938431 331.057257 C 335.938431 380.290918 315.653985 405.004285 275.085093 405.004285 C 263.725803 405.004285 251.960825 402.30126 239.993001 397.088284 C 228.025178 391.682235 217.071577 384.731601 206.929354 376.043308 C 196.989976 367.355015 188.267664 359.245941 180.965263 351.90916 C 173.662863 344.57238 167.577529 337.428672 162.912106 330.091891 L 157.029617 321.982818 L 135.933793 236.065253 C 121.328992 178.722519 114.026591 137.984078 114.026591 114.043004 C 114.026591 81.992856 121.937525 58.051782 137.962238 42.026708 C 148.712994 31.407683 162.100729 26.001634 177.922597 26.001634 C 200.032643 26.001634 222.345533 36.620659 245.064113 58.051782 C 261.697359 73.304563 275.085093 92.032662 285.024472 114.043004 C 294.96385 136.053346 305.917451 170.999592 318.088119 219.074813 C 330.055942 266.956962 335.938431 302.289353 335.938431 325.071989 Z M 335.938431 325.071989 "
     transform="matrix(0.0192574, 0, 0, -0.020232, 271.124461, 20.803408)"
     id="path49" />
  <path
     fill-rule="nonzero"
     fill="rgb(0%, 0%, 0%)"
     fill-opacity="1"
     stroke-width="6.034818"
     stroke-linecap="butt"
     stroke-linejoin="miter"
     stroke="rgb(0%, 0%, 0%)"
     stroke-opacity="0.2474"
     stroke-miterlimit="4"
     d="M 52.027841 289.032745 C 56.589588 316.928061 74.638236 349.341631 105.975449 386.077012 C 137.312663 422.615946 175.988338 441.278305 222.002474 442.064088 C 245.406216 442.064088 266.628253 435.974266 286.065259 423.991067 C 305.303928 412.007868 319.584177 397.077981 328.906006 379.00496 C 357.069831 421.044379 390.588749 442.064088 430.057772 442.064088 C 454.651534 442.064088 476.071908 434.599145 493.922219 420.062149 C 511.970868 405.328708 521.292697 385.68412 522.086044 360.931939 C 522.086044 341.680242 517.325961 325.964571 508.004132 313.981372 C 498.682302 301.998174 489.757147 294.729676 481.030328 291.979434 C 472.303509 289.425637 464.568374 288.050516 458.02326 288.050516 C 445.329705 288.050516 435.016191 291.586542 427.08272 299.051485 C 418.950911 306.319983 414.984175 315.945831 414.984175 327.92903 C 414.984175 358.574588 431.644466 379.594297 464.965047 390.988159 C 457.626586 399.631777 444.338021 403.953587 424.901015 403.953587 C 416.372533 403.953587 410.025755 403.364249 406.059019 401.989128 C 380.67191 391.38105 362.028251 369.379111 349.929707 335.983311 C 310.064011 188.648899 290.031995 102.605602 290.031995 78.049867 C 290.031995 59.387508 295.387088 46.029188 306.097275 37.974907 C 316.609125 29.920626 328.310996 25.991708 341.004551 25.991708 C 365.598313 25.991708 389.993739 36.992677 413.992491 58.994616 C 437.991243 80.996555 454.25486 107.909641 462.981679 139.93032 C 464.965047 146.60948 466.948415 150.341952 468.931783 150.93129 C 470.915151 151.717073 476.270245 152.306411 484.997064 153.092194 L 488.963799 153.092194 C 499.078976 153.092194 504.037396 150.341952 504.037396 145.037913 C 504.037396 144.25213 503.244049 140.716104 502.054028 134.036944 C 491.343841 95.926442 470.716814 62.334196 439.974611 33.06376 C 409.430745 3.596877 373.730122 -10.940118 333.071079 -10.940118 C 286.263596 -10.940118 250.959646 10.079591 226.960894 51.922565 C 199.590416 10.668929 168.253203 -9.957889 132.949254 -9.957889 L 126.99915 -9.957889 C 94.273579 -9.957889 71.068174 -1.31427 56.986261 15.972968 C 42.904349 33.260206 35.764224 51.726119 34.970877 70.977815 C 34.970877 92.390416 41.317655 109.677654 54.011209 123.035974 C 66.704764 136.394294 81.580024 143.073454 99.033662 143.073454 C 127.59416 143.073454 142.072746 128.929351 142.072746 101.034035 C 142.072746 87.675715 137.907673 76.085408 129.974202 66.066668 C 122.04073 56.047928 114.305595 49.368768 106.967133 46.029188 C 99.628672 42.689608 95.265263 40.921595 94.075242 40.921595 L 90.901853 39.939366 C 90.901853 39.350028 93.083558 37.974907 97.050294 36.010448 C 101.01703 34.045989 106.372123 31.688639 112.917237 28.938396 C 119.660688 26.3846 126.007466 25.40237 131.95757 25.991708 C 155.956322 25.991708 176.583348 40.921595 194.036986 70.977815 C 199.98709 81.585893 207.722225 104.373615 217.044054 138.948091 C 226.365884 173.719012 235.687713 209.668609 245.009542 246.993326 C 254.331372 284.318044 259.686465 306.319983 261.074823 312.999143 C 264.248211 331.072164 266.033243 344.037593 266.033243 352.091874 C 266.033243 370.754233 261.074823 383.916107 250.959646 391.970388 C 241.042806 400.024669 229.737609 403.953587 217.044054 403.953587 C 190.268587 403.953587 165.278151 393.345509 142.072746 371.932908 C 118.669004 350.716753 102.405387 323.410775 93.083558 290.014975 C 91.6952 283.925152 89.910169 280.585572 87.926801 279.996235 C 85.943433 279.406897 80.58834 278.621114 72.059858 278.031776 L 57.977945 278.031776 C 54.011209 281.960694 52.027841 285.693165 52.027841 289.032745 Z M 52.027841 289.032745 "
     transform="matrix(0.019695, 0, 0, -0.0198846, 81.112029, 152.239491)"
     id="path51" />
  <path
     fill="none"
     stroke-width="2"
     stroke-linecap="butt"
     stroke-linejoin="miter"
     stroke="rgb(42.349243%, 55.688477%, 74.899292%)"
     stroke-opacity="1"
     stroke-miterlimit="10"
     d="M 115.002399 175.642487 L 115.002399 185.639077 "
     transform="matrix(0.751037, 0, 0, 0.751037, 0, 0)"
     id="path53" />
  <path
     fill="none"
     stroke-width="2"
     stroke-linecap="butt"
     stroke-linejoin="miter"
     stroke="rgb(50.979614%, 70.199585%, 39.99939%)"
     stroke-opacity="1"
     stroke-miterlimit="4"
     d="M 15.551408 78.641232 L 214.44819 78.641232 C 215.405199 78.641232 216.351807 78.734852 217.288012 78.922093 C 218.224217 79.104133 219.134416 79.379794 220.01861 79.749075 C 220.902804 80.113154 221.740187 80.560452 222.535962 81.090969 C 223.326535 81.621485 224.065097 82.224817 224.736044 82.900965 C 225.412192 83.577113 226.015524 84.310474 226.54604 85.106248 C 227.076557 85.902023 227.529056 86.739406 227.893136 87.6236 C 228.257215 88.502593 228.532876 89.412792 228.720117 90.348997 C 228.907358 91.290403 229.000978 92.237011 229.000978 93.188819 L 229.000978 161.089698 C 229.000978 162.046707 228.907358 162.993315 228.720117 163.92952 C 228.532876 164.865725 228.257215 165.775925 227.893136 166.660118 C 227.529056 167.539111 227.076557 168.381696 226.54604 169.172269 C 226.015524 169.968043 225.412192 170.701404 224.736044 171.377552 C 224.065097 172.0537 223.326535 172.657032 222.535962 173.187549 C 221.740187 173.718065 220.902804 174.165363 220.01861 174.534644 C 219.134416 174.898724 218.224217 175.174384 217.288012 175.361625 C 216.351807 175.548866 215.405199 175.642487 214.44819 175.642487 L 15.551408 175.642487 C 14.594398 175.642487 13.64779 175.548866 12.711585 175.361625 C 11.77538 175.174384 10.865181 174.898724 9.980987 174.534644 C 9.096793 174.165363 8.25941 173.718065 7.468837 173.187549 C 6.673062 172.657032 5.939701 172.0537 5.263553 171.377552 C 4.587405 170.701404 3.984073 169.968043 3.453557 169.172269 C 2.92304 168.381696 2.475742 167.539111 2.106462 166.660118 C 1.742382 165.775925 1.466721 164.865725 1.27948 163.92952 C 1.092239 162.993315 0.998619 162.046707 0.998619 161.089698 L 0.998619 93.188819 C 0.998619 92.237011 1.092239 91.290403 1.27948 90.348997 C 1.466721 89.412792 1.742382 88.502593 2.106462 87.6236 C 2.475742 86.739406 2.92304 85.902023 3.453557 85.106248 C 3.984073 84.310474 4.587405 83.577113 5.263553 82.900965 C 5.939701 82.224817 6.673062 81.621485 7.468837 81.090969 C 8.25941 80.560452 9.096793 80.113154 9.980987 79.749075 C 10.865181 79.379794 11.77538 79.104133 12.711585 78.922093 C 13.64779 78.734852 14.594398 78.641232 15.551408 78.641232 Z M 15.551408 78.641232 "
     transform="matrix(0.751037, 0, 0, 0.751037, 0, 0)"
     id="path55" />
  <path
     fill="none"
     stroke-width="2"
     stroke-linecap="butt"
     stroke-linejoin="miter"
     stroke="rgb(42.349243%, 55.688477%, 74.899292%)"
     stroke-opacity="1"
     stroke-miterlimit="10"
     d="M 114.497889 35.638209 L 114.497889 55.600183 C 114.497889 62.268044 111.169159 65.601975 104.501298 65.601975 L 67.9997 65.601975 C 61.331839 65.601975 57.997908 67.77085 57.997908 72.119003 L 57.997908 78.641232 "
     transform="matrix(0.751037, 0, 0, 0.751037, 0, 0)"
     id="path57" />
  <path
     fill="none"
     stroke-width="2"
     stroke-linecap="butt"
     stroke-linejoin="miter"
     stroke="rgb(42.349243%, 55.688477%, 74.899292%)"
     stroke-opacity="1"
     stroke-miterlimit="10"
     d="M 114.497889 35.638209 L 114.497889 55.600183 C 114.497889 62.268044 117.831819 65.601975 124.49968 65.601975 L 161.999897 65.601975 C 168.667758 65.601975 172.001689 67.77085 172.001689 72.119003 L 172.001689 78.641232 "
     transform="matrix(0.751037, 0, 0, 0.751037, 0, 0)"
     id="path59" />
  <path
     fill="none"
     stroke-width="1"
     stroke-linecap="butt"
     stroke-linejoin="miter"
     stroke="rgb(42.349243%, 55.688477%, 74.899292%)"
     stroke-opacity="0.502"
     stroke-miterlimit="10"
     d="M 109.44169 124.098502 L 89.401699 124.098502 C 82.733838 124.098502 76.065977 124.082898 69.398116 124.051692 L 48.338701 123.942468 "
     transform="matrix(0.751037, 0, 0, 0.751037, 0.375519, 0.375519)"
     id="path61" />
  <path
     fill="none"
     stroke-width="1"
     stroke-linecap="butt"
     stroke-linejoin="miter"
     stroke="rgb(50.979614%, 70.199585%, 39.99939%)"
     stroke-opacity="0.502"
     stroke-miterlimit="10"
     d="M 109.44169 109.649736 C 119.079402 109.649736 123.900859 112.86404 123.900859 119.287448 C 123.900859 125.710855 119.079402 128.919958 109.44169 128.919958 Z M 109.44169 109.649736 "
     transform="matrix(0.751037, 0, 0, 0.751037, 0.375519, 0.375519)"
     id="path63" />
  <path
     fill="none"
     stroke-width="1"
     stroke-linecap="butt"
     stroke-linejoin="miter"
     stroke="rgb(42.349243%, 55.688477%, 74.899292%)"
     stroke-opacity="0.502"
     stroke-miterlimit="10"
     d="M 99.918404 102.617795 L 102.310928 102.612594 C 103.902477 102.602192 104.698251 104.583826 104.698251 108.552295 L 104.698251 111.532548 C 104.698251 113.508981 105.488824 114.491997 107.069971 114.481595 L 109.44169 114.471192 "
     transform="matrix(0.751037, 0, 0, 0.751037, 0.375519, 0.375519)"
     id="path65" />
  <path
     fill="none"
     stroke-width="1"
     stroke-linecap="butt"
     stroke-linejoin="miter"
     stroke="rgb(42.349243%, 55.688477%, 74.899292%)"
     stroke-opacity="0.502"
     stroke-miterlimit="10"
     d="M 67.811768 107.439252 L 48.302293 107.397642 "
     transform="matrix(0.751037, 0, 0, 0.751037, 0.375519, 0.375519)"
     id="path67" />
  <path
     fill="none"
     stroke-width="1"
     stroke-linecap="butt"
     stroke-linejoin="miter"
     stroke="rgb(50.979614%, 70.199585%, 39.99939%)"
     stroke-opacity="0.502"
     stroke-miterlimit="10"
     d="M 93.500197 102.617795 L 99.918404 102.617795 M 67.811768 97.811942 L 75.202588 97.811942 M 67.811768 107.439252 L 75.202588 107.439252 "
     transform="matrix(0.751037, 0, 0, 0.751037, 0.375519, 0.375519)"
     id="path69" />
  <path
     fill="none"
     stroke-width="1"
     stroke-linecap="butt"
     stroke-linejoin="miter"
     stroke="rgb(50.979614%, 70.199585%, 39.99939%)"
     stroke-opacity="0.502"
     stroke-miterlimit="10"
     d="M 71.031274 92.990486 C 74.469227 98.950992 74.469227 106.2898 71.031274 112.260708 "
     transform="matrix(0.751037, 0, 0, 0.751037, 0.375519, 0.375519)"
     id="path71" />
  <path
     fill="none"
     stroke-width="1"
     stroke-linecap="butt"
     stroke-linejoin="miter"
     stroke="rgb(50.979614%, 70.199585%, 39.99939%)"
     stroke-opacity="0.502"
     stroke-miterlimit="10"
     d="M 80.658583 92.990486 C 86.270613 93.172525 91.268908 96.922547 93.500197 102.617795 C 91.268908 108.318244 86.270613 112.078668 80.658583 112.260708 L 72.628024 112.260708 C 76.071178 106.2898 76.071178 98.950992 72.628024 92.990486 Z M 80.658583 92.990486 "
     transform="matrix(0.751037, 0, 0, 0.751037, 0.375519, 0.375519)"
     id="path73" />
  <path
     fill="none"
     stroke-width="1"
     stroke-linecap="butt"
     stroke-linejoin="miter"
     stroke="rgb(42.349243%, 55.688477%, 74.899292%)"
     stroke-opacity="0.502"
     stroke-miterlimit="10"
     d="M 166.149716 102.617795 L 181.701124 102.602192 "
     transform="matrix(0.751037, 0, 0, 0.751037, 0.375519, 0.375519)"
     id="path75" />
  <path
     fill="none"
     stroke-width="1"
     stroke-linecap="butt"
     stroke-linejoin="miter"
     stroke="rgb(50.979614%, 70.199585%, 39.99939%)"
     stroke-opacity="0.502"
     stroke-miterlimit="10"
     d="M 159.73151 102.617795 L 166.149716 102.617795 M 134.048282 97.811942 L 141.428699 97.811942 M 134.048282 107.439252 L 141.428699 107.439252 "
     transform="matrix(0.751037, 0, 0, 0.751037, 0.375519, 0.375519)"
     id="path77" />
  <path
     fill="none"
     stroke-width="1"
     stroke-linecap="butt"
     stroke-linejoin="miter"
     stroke="rgb(50.979614%, 70.199585%, 39.99939%)"
     stroke-opacity="0.502"
     stroke-miterlimit="10"
     d="M 137.262586 92.990486 C 140.70054 98.950992 140.70054 106.2898 137.262586 112.260708 "
     transform="matrix(0.751037, 0, 0, 0.751037, 0.375519, 0.375519)"
     id="path79" />
  <path
     fill="none"
     stroke-width="1"
     stroke-linecap="butt"
     stroke-linejoin="miter"
     stroke="rgb(50.979614%, 70.199585%, 39.99939%)"
     stroke-opacity="0.502"
     stroke-miterlimit="10"
     d="M 146.889896 92.990486 C 152.501926 93.172525 157.500221 96.922547 159.73151 102.617795 C 157.500221 108.318244 152.501926 112.078668 146.889896 112.260708 L 138.859336 112.260708 C 142.302491 106.2898 142.302491 98.950992 138.859336 92.990486 Z M 146.889896 92.990486 "
     transform="matrix(0.751037, 0, 0, 0.751037, 0.375519, 0.375519)"
     id="path81" />
  <path
     fill="none"
     stroke-width="1"
     stroke-linecap="butt"
     stroke-linejoin="miter"
     stroke="rgb(42.349243%, 55.688477%, 74.899292%)"
     stroke-opacity="0.502"
     stroke-miterlimit="10"
     d="M 59.448336 97.749528 L 48.338701 97.749528 "
     transform="matrix(0.751037, 0, 0, 0.751037, 0.375519, 0.375519)"
     id="path83" />
  <path
     fill="none"
     stroke-width="1"
     stroke-linecap="butt"
     stroke-linejoin="miter"
     stroke="rgb(42.349243%, 55.688477%, 74.899292%)"
     stroke-opacity="0.502"
     stroke-miterlimit="10"
     d="M 59.448336 97.749528 L 67.801366 97.697517 "
     transform="matrix(0.751037, 0, 0, 0.751037, 0.375519, 0.375519)"
     id="path85" />
  <path
     fill="none"
     stroke-width="1"
     stroke-linecap="butt"
     stroke-linejoin="miter"
     stroke="rgb(42.349243%, 55.688477%, 74.899292%)"
     stroke-opacity="0.502"
     stroke-miterlimit="10"
     d="M 57.861988 97.749528 L 57.877592 92.168705 C 57.893195 88.455092 61.232327 86.598285 67.900188 86.598285 L 109.800569 86.598285 C 116.46843 86.598285 119.80236 88.465494 119.80236 92.199912 L 119.80236 94.998125 C 119.80236 96.865335 122.17408 97.80154 126.91752 97.80154 L 134.048282 97.811942 "
     transform="matrix(0.751037, 0, 0, 0.751037, 0.375519, 0.375519)"
     id="path87" />
  <path
     fill="none"
     stroke-width="1"
     stroke-linecap="butt"
     stroke-linejoin="miter"
     stroke="rgb(42.349243%, 55.688477%, 74.899292%)"
     stroke-opacity="0.502"
     stroke-miterlimit="10"
     d="M 123.900859 119.287448 L 126.199762 119.287448 C 127.734098 119.29785 128.498666 117.316216 128.498666 113.347746 L 128.498666 110.377895 C 128.498666 108.39106 129.424469 107.408045 131.270873 107.418447 L 134.048282 107.439252 "
     transform="matrix(0.751037, 0, 0, 0.751037, 0.375519, 0.375519)"
     id="path89" />
  <path
     fill-rule="nonzero"
     fill="rgb(0%, 0%, 0%)"
     fill-opacity="1"
     stroke-width="6.005028"
     stroke-linecap="butt"
     stroke-linejoin="miter"
     stroke="rgb(0%, 0%, 0%)"
     stroke-opacity="0.24"
     stroke-miterlimit="4"
     d="M 32.941869 157.021812 C 32.941869 224.265616 58.348918 288.381801 108.95129 348.979415 C 159.765388 409.577029 216.719522 440.266788 280.025419 441.048693 C 313.901484 441.048693 343.966492 424.628694 370.008717 391.984173 C 380.594987 411.922743 396.050942 422.087504 415.95313 422.087504 C 424.633872 422.087504 432.255986 419.350838 439.031199 414.072981 C 445.594687 408.599648 448.982293 401.953458 448.982293 393.938935 C 448.982293 385.337983 436.70222 331.972988 411.930347 234.039425 C 387.3702 135.910385 374.666676 80.590628 374.0315 68.080153 C 374.0315 51.269202 376.360479 40.322536 381.018438 35.044679 C 385.676397 29.571346 392.663335 26.639204 401.979253 26.052775 C 407.907565 26.639204 414.682778 29.571346 422.093167 35.044679 C 436.067044 48.337059 449.61747 80.395152 462.95617 131.023481 C 466.978953 144.315861 470.36656 151.353003 472.907264 151.939431 C 474.389342 152.721336 477.565223 152.916812 483.070084 152.916812 L 487.092867 152.916812 C 499.584666 152.916812 505.936428 149.98467 505.936428 143.924908 C 505.936428 140.015385 504.242625 131.023481 501.066743 116.949196 C 497.679137 103.070388 490.903924 85.08658 480.95283 62.997772 C 471.001736 40.908965 460.415465 24.29349 448.982293 12.955872 C 440.301552 4.35492 429.715281 -2.682222 417.011757 -7.960079 C 411.718622 -9.328412 403.673056 -9.914841 393.086786 -9.914841 C 370.432168 -9.914841 351.376881 -5.027936 335.920926 4.941349 C 320.676697 14.910633 310.725603 25.270871 306.067644 36.02206 L 299.927607 51.073726 C 299.292431 51.660154 298.022079 51.269202 295.904824 50.096345 C 294.634472 48.728012 293.36412 47.359678 292.093767 45.991345 C 252.712842 8.655396 212.69674 -9.914841 172.045462 -9.914841 C 135.416966 -9.914841 103.022979 3.377539 75.075225 29.962299 C 46.915746 56.742535 32.941869 98.965388 32.941869 157.021812 Z M 350.95343 328.063464 C 350.95343 331.972988 349.259627 339.401082 346.083746 349.956796 C 342.696139 360.707985 335.074025 372.24108 323.005677 384.947031 C 310.937328 397.652982 295.693099 404.299172 277.061263 405.081077 C 253.771469 405.081077 231.328575 394.72084 209.944309 374.000365 C 188.771769 353.279891 172.045462 326.304179 159.977113 293.073229 C 140.710101 240.294662 126.94795 185.75681 118.902385 129.068719 C 118.902385 126.918481 118.902385 123.39991 118.902385 117.926577 C 118.902385 112.64872 118.690659 108.739197 118.055483 106.002531 C 118.055483 76.094676 123.983794 55.374201 136.052142 44.036583 C 147.908765 32.698965 162.306093 26.639204 179.0324 26.052775 C 204.227723 26.052775 229.423047 36.999441 253.983194 59.088249 C 278.755067 80.98158 293.36412 97.988007 298.022079 109.912054 C 299.292431 112.64872 308.396623 148.42086 324.911205 217.032997 C 341.637512 285.645135 350.318254 322.590131 350.95343 328.063464 Z M 350.95343 328.063464 "
     transform="matrix(0.0184496, 0, 0, -0.0199833, 81.864892, 20.829213)"
     id="path91" />
</svg>
