<?xml version="1.0" encoding="UTF-8" standalone="no"?>
<svg
   width="684.95996pt"
   height="253.92pt"
   viewBox="0 0 684.95996 253.92"
   version="1.1"
   id="svg81"
   xmlns="http://www.w3.org/2000/svg"
   xmlns:svg="http://www.w3.org/2000/svg">
  <defs
     id="defs5">
    <clipPath
       id="clip-0">
      <path
         clip-rule="nonzero"
         d="M 291 182 L 364 182 L 364 252.09375 L 291 252.09375 Z M 291 182 "
         id="path2" />
    </clipPath>
  </defs>
  <path
     fill-rule="nonzero"
     fill="rgb(50.979614%, 70.199585%, 39.99939%)"
     fill-opacity="1"
     d="M 297.484375 0 L 306.488281 0 L 306.488281 3 L 297.484375 3 Z M 315.488281 0 L 324.492188 0 L 324.492188 3 L 315.488281 3 Z M 333.496094 0 L 342.5 0 L 342.5 3 L 333.496094 3 Z M 351.503906 0 L 360.507813 0 L 360.507813 3 L 351.503906 3 Z M 369.511719 0 L 375.757813 0 C 376.738281 0 377.710938 0.0664063 378.683594 0.195313 L 378.285156 3.167969 C 377.449219 3.058594 376.605469 3 375.757813 3 L 369.511719 3 Z M 387.714844 3.507813 C 390.476563 5.277344 392.730469 7.550781 394.480469 10.324219 L 391.941406 11.925781 C 390.429688 9.527344 388.480469 7.5625 386.09375 6.03125 Z M 397.722656 19.382813 C 397.835938 20.296875 397.894531 21.210938 397.894531 22.132813 L 397.894531 28.542969 L 394.890625 28.542969 L 394.890625 22.132813 C 394.890625 21.335938 394.84375 20.546875 394.742188 19.753906 Z M 397.894531 37.546875 L 397.894531 46.550781 L 394.890625 46.550781 L 394.890625 37.546875 Z M 397.894531 55.550781 L 397.894531 64.554688 L 394.890625 64.554688 L 394.890625 55.550781 Z M 397.894531 73.558594 L 397.894531 82.5625 L 394.890625 82.5625 L 394.890625 73.558594 Z M 397.894531 91.566406 L 397.894531 100.570313 L 394.890625 100.570313 L 394.890625 91.566406 Z M 397.894531 109.570313 L 397.894531 118.574219 L 394.890625 118.574219 L 394.890625 109.570313 Z M 397.894531 127.578125 L 397.894531 136.582031 L 394.890625 136.582031 L 394.890625 127.578125 Z M 397.894531 145.585938 L 397.894531 154.589844 L 394.890625 154.589844 L 394.890625 145.585938 Z M 397.894531 163.59375 L 397.894531 172.59375 L 394.890625 172.59375 L 394.890625 163.59375 Z M 397.894531 181.597656 L 397.894531 190.601563 L 394.890625 190.601563 L 394.890625 181.597656 Z M 397.894531 199.605469 L 397.894531 208.609375 L 394.890625 208.609375 L 394.890625 199.605469 Z M 397.894531 217.613281 L 397.894531 226.613281 L 394.890625 226.613281 L 394.890625 217.613281 Z M 396.574219 235.984375 C 395.457031 239.070313 393.742188 241.773438 391.421875 244.097656 L 389.296875 241.976563 C 391.300781 239.96875 392.789063 237.632813 393.75 234.964844 Z M 383.316406 249.261719 C 380.875 250.148438 378.355469 250.589844 375.757813 250.589844 L 373.945313 250.589844 L 373.945313 247.589844 L 375.757813 247.589844 C 378.003906 247.589844 380.183594 247.207031 382.292969 246.441406 Z M 364.945313 250.589844 L 355.941406 250.589844 L 355.941406 247.589844 L 364.945313 247.589844 Z M 346.9375 250.589844 L 337.933594 250.589844 L 337.933594 247.589844 L 346.9375 247.589844 Z M 328.929688 250.589844 L 319.925781 250.589844 L 319.925781 247.589844 L 328.929688 247.589844 Z M 310.925781 250.589844 L 301.921875 250.589844 L 301.921875 247.589844 L 310.925781 247.589844 Z M 292.917969 250.589844 L 283.914063 250.589844 L 283.914063 247.589844 L 292.917969 247.589844 Z M 274.628906 250.054688 C 271.429688 249.335938 268.53125 247.972656 265.933594 245.964844 L 267.769531 243.589844 C 270.015625 245.328125 272.519531 246.503906 275.285156 247.125 Z M 259.785156 238.5625 C 258.289063 235.648438 257.480469 232.550781 257.359375 229.273438 L 260.359375 229.164063 C 260.460938 231.996094 261.160156 234.671875 262.457031 237.195313 Z M 257.34375 220.238281 L 257.34375 211.234375 L 260.34375 211.234375 L 260.34375 220.238281 Z M 257.34375 202.230469 L 257.34375 193.226563 L 260.34375 193.226563 L 260.34375 202.230469 Z M 257.34375 184.222656 L 257.34375 175.21875 L 260.34375 175.21875 L 260.34375 184.222656 Z M 257.34375 166.214844 L 257.34375 157.214844 L 260.34375 157.214844 L 260.34375 166.214844 Z M 257.34375 148.210938 L 257.34375 139.207031 L 260.34375 139.207031 L 260.34375 148.210938 Z M 257.34375 130.203125 L 257.34375 121.199219 L 260.34375 121.199219 L 260.34375 130.203125 Z M 257.34375 112.195313 L 257.34375 103.195313 L 260.34375 103.195313 L 260.34375 112.195313 Z M 257.34375 94.191406 L 257.34375 85.1875 L 260.34375 85.1875 L 260.34375 94.191406 Z M 257.34375 76.183594 L 257.34375 67.179688 L 260.34375 67.179688 L 260.34375 76.183594 Z M 257.34375 58.175781 L 257.34375 49.175781 L 260.34375 49.175781 L 260.34375 58.175781 Z M 257.34375 40.171875 L 257.34375 31.167969 L 260.34375 31.167969 L 260.34375 40.171875 Z M 257.34375 22.164063 L 257.34375 22.132813 C 257.34375 18.875 258.03125 15.765625 259.402344 12.808594 L 262.125 14.074219 C 260.9375 16.628906 260.34375 19.316406 260.34375 22.132813 L 260.34375 22.164063 Z M 265.253906 5.175781 C 267.769531 3.0625 270.617188 1.585938 273.789063 0.742188 L 274.5625 3.644531 C 271.816406 4.371094 269.359375 5.648438 267.183594 7.472656 Z M 279.476563 0 L 288.480469 0 L 288.480469 3 L 279.476563 3 Z M 279.476563 0 "
     id="path7" />
  <path
     fill="none"
     stroke-width="2"
     stroke-linecap="butt"
     stroke-linejoin="miter"
     stroke="rgb(50.979614%, 70.199585%, 39.99939%)"
     stroke-opacity="0.502"
     stroke-miterlimit="10"
     d="M 417.290391 14.218768 C 443.124711 14.218768 456.041872 22.835415 456.041872 40.058295 C 456.041872 57.281175 443.124711 65.887408 417.290391 65.887408 Z M 417.290391 14.218768 "
     transform="matrix(0.750274, 0, 0, 0.750274, 0, 0)"
     id="path9" />
  <path
     fill="none"
     stroke-width="2"
     stroke-linecap="butt"
     stroke-linejoin="miter"
     stroke="rgb(50.979614%, 70.199585%, 39.99939%)"
     stroke-opacity="0.502"
     stroke-miterlimit="10"
     d="M 417.290391 99.781287 C 443.124711 99.781287 456.041872 108.38752 456.041872 125.6104 C 456.041872 142.828074 443.124711 151.439514 417.290391 151.439514 Z M 417.290391 99.781287 "
     transform="matrix(0.750274, 0, 0, 0.750274, 0, 0)"
     id="path11" />
  <path
     fill="none"
     stroke-width="2"
     stroke-linecap="butt"
     stroke-linejoin="miter"
     stroke="rgb(50.979614%, 70.199585%, 39.99939%)"
     stroke-opacity="0.502"
     stroke-miterlimit="10"
     d="M 417.290391 185.328186 C 443.124711 185.328186 456.041872 193.944832 456.041872 211.167712 C 456.041872 228.390592 443.124711 237.002033 417.290391 237.002033 Z M 417.290391 185.328186 "
     transform="matrix(0.750274, 0, 0, 0.750274, 0, 0)"
     id="path13" />
  <g
     clip-path="url(#clip-0)"
     id="g17">
    <path
       fill="none"
       stroke-width="2"
       stroke-linecap="butt"
       stroke-linejoin="miter"
       stroke="#82b366"
       stroke-opacity="0.502"
       stroke-miterlimit="10"
       d="m 417.29039,270.8907 c 25.83432,0 38.75148,8.61144 38.75148,25.82912 0,17.21767 -12.91716,25.82911 -38.75148,25.82911 z m 0,0"
       transform="scale(0.750274)"
       id="path15" />
  </g>
  <path
     fill="none"
     stroke-width="1"
     stroke-linecap="butt"
     stroke-linejoin="miter"
     stroke="rgb(42.349243%, 55.688477%, 74.899292%)"
     stroke-opacity="0.502"
     stroke-miterlimit="10"
     d="M 417.290209 27.140952 L 344.269987 27.411687 "
     transform="matrix(0.750274, 0, 0, 0.750274, 0.375137, 0.375137)"
     id="path19" />
  <path
     fill="none"
     stroke-width="1"
     stroke-linecap="butt"
     stroke-linejoin="miter"
     stroke="rgb(42.349243%, 55.688477%, 74.899292%)"
     stroke-opacity="0.502"
     stroke-miterlimit="10"
     d="M 417.290209 52.970066 L 343.900331 52.819079 "
     transform="matrix(0.750274, 0, 0, 0.750274, 0.375137, 0.375137)"
     id="path21" />
  <path
     fill="none"
     stroke-width="1"
     stroke-linecap="butt"
     stroke-linejoin="miter"
     stroke="rgb(42.349243%, 55.688477%, 74.899292%)"
     stroke-opacity="0.502"
     stroke-miterlimit="10"
     d="M 417.290209 112.698264 L 344.629231 113.208495 "
     transform="matrix(0.750274, 0, 0, 0.750274, 0.375137, 0.375137)"
     id="path23" />
  <path
     fill="none"
     stroke-width="1"
     stroke-linecap="butt"
     stroke-linejoin="miter"
     stroke="rgb(42.349243%, 55.688477%, 74.899292%)"
     stroke-opacity="0.502"
     stroke-miterlimit="10"
     d="M 417.290209 138.532584 L 344.629231 138.621094 "
     transform="matrix(0.750274, 0, 0, 0.750274, 0.375137, 0.375137)"
     id="path25" />
  <path
     fill="none"
     stroke-width="1"
     stroke-linecap="butt"
     stroke-linejoin="miter"
     stroke="rgb(42.349243%, 55.688477%, 74.899292%)"
     stroke-opacity="0.502"
     stroke-miterlimit="10"
     d="M 417.290209 198.25037 L 344.629231 198.349292 "
     transform="matrix(0.750274, 0, 0, 0.750274, 0.375137, 0.375137)"
     id="path27" />
  <path
     fill="none"
     stroke-width="1"
     stroke-linecap="butt"
     stroke-linejoin="miter"
     stroke="rgb(42.349243%, 55.688477%, 74.899292%)"
     stroke-opacity="0.502"
     stroke-miterlimit="10"
     d="M 417.290209 224.079484 L 344.998888 224.089896 "
     transform="matrix(0.750274, 0, 0, 0.750274, 0.375137, 0.375137)"
     id="path29" />
  <path
     fill="none"
     stroke-width="1"
     stroke-linecap="butt"
     stroke-linejoin="miter"
     stroke="rgb(42.349243%, 55.688477%, 74.899292%)"
     stroke-opacity="0.502"
     stroke-miterlimit="10"
     d="M 417.290209 283.807682 L 344.269987 283.818095 "
     transform="matrix(0.750274, 0, 0, 0.750274, 0.375137, 0.375137)"
     id="path31" />
  <path
     fill="none"
     stroke-width="1"
     stroke-linecap="butt"
     stroke-linejoin="miter"
     stroke="rgb(42.349243%, 55.688477%, 74.899292%)"
     stroke-opacity="0.502"
     stroke-miterlimit="10"
     d="M 417.290209 309.642002 L 344.998888 309.558699 "
     transform="matrix(0.750274, 0, 0, 0.750274, 0.375137, 0.375137)"
     id="path33" />
  <path
     fill="none"
     stroke-width="1"
     stroke-linecap="butt"
     stroke-linejoin="miter"
     stroke="rgb(42.349243%, 55.688477%, 74.899292%)"
     stroke-opacity="0.502"
     stroke-miterlimit="10"
     d="M 456.041689 40.058112 L 527.411471 39.948777 "
     transform="matrix(0.750274, 0, 0, 0.750274, 0.375137, 0.375137)"
     id="path35" />
  <path
     fill="none"
     stroke-width="1"
     stroke-linecap="butt"
     stroke-linejoin="miter"
     stroke="rgb(42.349243%, 55.688477%, 74.899292%)"
     stroke-opacity="0.502"
     stroke-miterlimit="10"
     d="M 456.041689 125.610218 L 527.411471 125.750792 "
     transform="matrix(0.750274, 0, 0, 0.750274, 0.375137, 0.375137)"
     id="path37" />
  <path
     fill="none"
     stroke-width="1"
     stroke-linecap="butt"
     stroke-linejoin="miter"
     stroke="rgb(42.349243%, 55.688477%, 74.899292%)"
     stroke-opacity="0.502"
     stroke-miterlimit="10"
     d="M 456.041689 211.16753 L 527.411471 210.558377 "
     transform="matrix(0.750274, 0, 0, 0.750274, 0.375137, 0.375137)"
     id="path39" />
  <path
     fill="none"
     stroke-width="1"
     stroke-linecap="butt"
     stroke-linejoin="miter"
     stroke="rgb(42.349243%, 55.688477%, 74.899292%)"
     stroke-opacity="0.502"
     stroke-miterlimit="10"
     d="M 456.041689 296.719636 L 527.411471 296.032386 "
     transform="matrix(0.750274, 0, 0, 0.750274, 0.375137, 0.375137)"
     id="path41" />
  <path
     fill-rule="nonzero"
     fill="rgb(0%, 0%, 0%)"
     fill-opacity="1"
     stroke-width="3.765214"
     stroke-linecap="butt"
     stroke-linejoin="miter"
     stroke="rgb(0%, 0%, 0%)"
     stroke-opacity="0.3978"
     stroke-miterlimit="4"
     d="M 700.950721 -940.056994 C 700.950721 -942.023363 698.989672 -944.972915 694.945009 -949.02855 L 664.058489 -949.02855 C 662.710268 -947.676671 653.272721 -938.705116 635.990977 -921.990986 C 618.709234 -905.276855 603.633671 -891.020685 591.009419 -878.976679 C 578.385167 -867.055571 560.368031 -846.6545 536.95801 -818.019262 C 513.670555 -789.384024 492.956976 -762.346459 474.93984 -737.029468 C 457.045269 -711.712476 435.963994 -678.038419 411.941145 -636.007296 C 388.040862 -593.976174 367.327283 -552.313746 350.04554 -511.020012 C 332.641232 -469.726277 314.378964 -419.95258 295.013607 -361.944715 C 275.648249 -304.059748 260.695252 -245.314495 250.032048 -185.954752 C 239.368845 -126.717908 229.686167 -59.001099 220.984012 16.949876 C 212.281858 93.02375 208.35976 170.941093 208.972588 250.947703 C 208.972588 724.965361 330.312486 1095.011295 572.992283 1360.962607 C 588.312977 1377.676737 602.653147 1392.301602 616.012792 1404.960097 C 629.372438 1417.618593 640.280772 1428.310721 648.982926 1437.03648 C 657.68508 1445.639342 662.710268 1449.940772 664.058489 1449.940772 L 694.945009 1449.940772 C 698.989672 1446.008036 700.950721 1443.058483 700.950721 1440.969217 C 700.950721 1437.65097 694.332181 1429.048109 680.972536 1415.037735 C 667.61289 1401.027361 650.331147 1381.363678 629.004741 1356.046686 C 607.678334 1330.606796 583.655486 1299.022005 557.058761 1261.046518 C 530.33947 1222.948132 503.375048 1175.386599 476.04293 1117.993224 C 448.710811 1060.722748 423.339742 996.938676 400.052286 927.009703 C 376.642266 856.957833 356.66408 773.018486 339.995165 674.945867 C 323.32625 576.996147 312.663046 471.672545 308.005555 358.975062 C 306.657334 333.65807 306.044507 297.280256 306.044507 249.964519 C 306.044507 -9.3503 337.298723 -235.974246 400.052286 -430.030217 C 462.683284 -623.963291 559.387506 -788.646635 690.042387 -923.957354 C 697.273754 -931.945725 700.950721 -937.353238 700.950721 -940.056994 Z M 700.950721 -940.056994 "
     transform="matrix(0.0318707, 0, 0, -0.0317845, 32.261772, 68.359056)"
     id="path43" />
  <path
     fill-rule="nonzero"
     fill="rgb(0%, 0%, 0%)"
     fill-opacity="1"
     stroke-width="3.765214"
     stroke-linecap="butt"
     stroke-linejoin="miter"
     stroke="rgb(0%, 0%, 0%)"
     stroke-opacity="0.3978"
     stroke-miterlimit="4"
     d="M 32.974637 157.057413 C 32.974637 224.282629 58.345707 288.312497 108.965281 349.024118 C 159.70742 409.612841 216.700402 440.337346 279.944228 440.951836 C 314.017452 440.951836 344.046013 424.606399 370.02991 392.038425 C 380.693113 411.947904 396.013808 422.025541 415.991993 422.025541 C 424.694147 422.025541 432.293212 419.321785 439.034317 414.03717 C 445.652857 408.629657 448.962127 401.993164 448.962127 394.004793 C 448.962127 385.279033 436.705572 331.941293 411.94733 233.991573 C 387.311653 136.041852 374.687401 80.614846 373.952008 67.95635 C 373.952008 51.365117 376.280753 40.304295 381.06081 35.019681 C 385.718301 29.612168 392.704538 26.662615 402.01952 26.048125 C 408.025232 26.662615 414.643772 29.612168 421.997705 35.019681 C 435.970178 48.292667 449.69752 80.369049 463.057166 131.003033 C 466.979263 144.276019 470.288533 151.281206 472.984975 152.018594 C 474.333197 152.633084 477.642466 153.001778 483.035351 153.001778 L 486.957449 153.001778 C 499.704266 153.001778 505.955109 150.052226 505.955109 144.030223 C 505.955109 139.974588 504.361757 131.003033 501.052487 116.992659 C 497.620652 102.982285 491.002112 85.039174 480.951736 63.040429 C 471.023927 41.041684 460.360723 24.327553 448.962127 13.020935 C 440.382538 4.295176 429.719335 -2.710011 416.972517 -7.994626 C 411.702199 -9.346504 403.612872 -9.960994 392.949669 -9.960994 C 370.275041 -9.960994 351.27738 -5.045073 335.956686 5.032564 C 320.635992 14.987304 310.708182 25.310737 306.050691 36.002865 L 300.044979 50.996423 C 299.309586 51.610913 297.961365 51.365117 296.000316 50.013239 C 294.652095 48.661361 293.303874 47.309483 291.955652 45.957604 C 252.61211 8.719505 212.655739 -9.960994 171.963975 -9.960994 C 135.316875 -9.960994 102.959568 3.311992 75.014622 29.980862 C 46.94711 56.649732 32.974637 99.049548 32.974637 157.057413 Z M 351.032249 328.008557 C 351.032249 331.941293 349.316332 339.315175 346.007062 350.007302 C 342.697792 360.69943 334.976162 372.374742 322.964738 385.033237 C 310.953313 397.691733 295.632619 404.328226 277.002655 404.942716 C 253.7152 404.942716 231.285703 394.619283 209.959297 373.972416 C 188.632891 353.325549 171.963975 326.287985 159.952551 292.982622 C 140.709759 240.38227 126.982417 185.692651 119.015656 129.036665 C 119.015656 126.947399 119.015656 123.383356 119.015656 117.975843 C 119.015656 112.691228 118.647959 108.635594 118.035132 106.054735 C 118.035132 75.944721 124.040844 55.297854 136.052268 43.991236 C 147.941127 32.684618 162.281297 26.662615 178.950212 26.048125 C 204.321281 26.048125 229.324654 36.986049 253.960331 58.984794 C 278.718573 80.98354 293.303874 97.943466 297.961365 109.987472 C 299.309586 112.691228 308.379437 148.331654 325.048352 217.031646 C 341.717267 285.60874 350.296856 322.723942 351.032249 328.008557 Z M 351.032249 328.008557 "
     transform="matrix(0.0318707, 0, 0, -0.0317845, 55.718606, 45.601364)"
     id="path45" />
  <path
     fill-rule="nonzero"
     fill="rgb(0%, 0%, 0%)"
     fill-opacity="1"
     stroke-width="3.765214"
     stroke-linecap="butt"
     stroke-linejoin="miter"
     stroke="rgb(0%, 0%, 0%)"
     stroke-opacity="0.3978"
     stroke-miterlimit="4"
     d="M 34.000785 158.999112 C 34.000785 231.631841 62.681125 297.013587 120.041804 355.021452 C 177.279918 413.029317 239.298088 442.033249 305.973749 442.033249 C 343.356243 442.033249 372.649411 434.044878 393.975817 417.945237 C 415.302223 401.968495 426.333123 380.952934 426.945951 355.021452 C 426.945951 335.726463 420.695108 319.381026 407.94829 305.985142 C 395.324038 292.712156 379.390516 285.706969 360.025159 284.969581 C 347.278341 284.969581 337.350531 288.287828 329.996598 295.047219 C 322.642665 301.683712 318.965698 311.638451 318.965698 325.034335 C 318.965698 338.307321 322.642665 349.613939 329.996598 358.954188 C 337.350531 368.294438 344.704464 375.299625 352.058398 379.96975 C 359.289765 384.639874 363.947256 386.606243 366.030871 385.991752 L 367.011395 385.991752 C 367.011395 387.343631 365.050346 389.309999 361.005683 392.013755 C 356.96102 394.717512 349.974783 397.29837 340.046973 400.002127 C 329.996598 402.705883 318.720567 404.057761 305.973749 404.057761 C 285.995564 404.057761 266.997903 399.387636 248.980767 390.047387 C 235.008294 384.025384 220.668124 373.701951 205.960258 358.954188 C 176.66709 329.70446 155.340684 288.287828 141.981038 234.950088 C 128.621393 181.612348 121.635156 143.02237 121.022329 119.057256 C 121.022329 88.332752 129.724483 65.350822 147.006226 49.98857 C 161.714093 34.011827 180.956885 26.023456 204.979733 26.023456 L 209.024396 26.023456 C 283.666819 26.023456 345.317292 54.29 393.975817 110.945987 C 399.981529 117.705378 404.026192 121.023625 405.987241 121.023625 C 408.683684 121.023625 412.973478 117.951174 418.97919 112.052069 C 424.984902 106.030066 428.294172 101.359942 429.029565 98.041695 C 429.642393 94.723449 426.70082 89.68463 419.959714 83.048137 C 413.341175 76.288746 403.658496 66.948496 391.034244 55.027389 C 378.287426 42.983383 363.334429 33.028643 346.052686 25.040272 C 328.648377 17.051901 307.321971 8.694836 281.950901 -0.0309237 C 256.702397 -8.633785 229.983106 -12.320726 202.03816 -10.968847 C 152.031414 -10.968847 111.707347 5.007895 80.943393 36.96138 C 50.302004 69.037763 34.613613 109.717007 34.000785 158.999112 Z M 34.000785 158.999112 "
     transform="matrix(0.0318707, 0, 0, -0.0317845, 57.248402, 91.084955)"
     id="path47" />
  <path
     fill-rule="nonzero"
     fill="rgb(0%, 0%, 0%)"
     fill-opacity="1"
     stroke-width="3.765214"
     stroke-linecap="butt"
     stroke-linejoin="miter"
     stroke="rgb(0%, 0%, 0%)"
     stroke-opacity="0.3978"
     stroke-miterlimit="4"
     d="M 33.948074 1438.019664 C 33.948074 1443.304279 35.051164 1446.622526 37.012213 1447.974404 C 38.973261 1449.326282 43.385621 1449.940772 50.004161 1449.940772 L 70.962871 1449.940772 C 72.311092 1448.711792 81.626074 1439.617339 99.030383 1423.026106 C 116.312126 1406.311976 131.387689 1392.055806 144.011941 1380.0118 C 156.636193 1367.967794 174.653329 1347.689621 197.940785 1319.054382 C 221.350806 1290.296246 241.941819 1263.38158 259.958955 1237.94169 C 277.976091 1212.624698 299.057367 1178.950641 322.95765 1137.042417 C 346.980498 1095.011295 367.694077 1053.71756 384.97582 1013.038316 C 402.380128 972.359072 420.642396 922.708273 440.007754 863.96302 C 459.373111 805.340665 474.326109 746.71831 484.989312 687.973057 C 495.652515 629.350702 505.335194 561.633894 514.037348 484.945531 C 522.616937 408.380065 526.6616 330.339823 526.048772 250.947703 C 526.048772 173.03036 523.720027 107.034124 518.93997 52.958996 C 487.685754 -328.393556 368.674601 -632.68905 162.029077 -860.050384 C 146.708383 -876.641617 132.368213 -891.389379 119.008568 -904.047875 C 105.648923 -916.706371 94.618023 -927.2756 86.038434 -936.00136 C 77.33628 -944.727119 72.311092 -949.02855 70.962871 -949.02855 L 56.009873 -949.02855 C 47.307719 -949.02855 41.669704 -948.291161 38.973261 -946.939283 C 36.276819 -945.710303 34.683467 -942.392057 33.948074 -936.984544 C 69.982347 -900.975424 105.281226 -859.68169 139.967278 -812.980443 C 332.027501 -557.721259 427.996329 -203.037577 427.996329 250.947703 C 427.996329 385.643932 419.294175 511.368605 402.012432 627.998824 C 384.608123 744.629044 363.281717 842.701663 338.033213 921.970885 C 312.662143 1001.363005 281.653058 1075.962102 245.005957 1146.013972 C 208.358857 1215.942945 175.021026 1270.386767 144.992465 1308.976745 C 114.963905 1347.689621 81.993771 1386.279599 45.959498 1424.992474 C 44.611277 1426.344353 43.385621 1427.696231 42.0374 1429.048109 C 40.689179 1430.277089 39.708655 1431.628967 38.973261 1432.980846 C 38.360434 1434.332724 37.379909 1435.315908 36.031688 1436.053296 Z M 33.948074 1438.019664 "
     transform="matrix(0.0318707, 0, 0, -0.0317845, 72.578207, 68.359056)"
     id="path49" />
  <path
     fill-rule="nonzero"
     fill="rgb(0%, 0%, 0%)"
     fill-opacity="1"
     stroke-width="3.76159"
     stroke-linecap="butt"
     stroke-linejoin="miter"
     stroke="rgb(0%, 0%, 0%)"
     stroke-opacity="0.3981"
     stroke-miterlimit="4"
     d="M 700.993619 -939.976378 C 700.993619 -941.942573 699.034458 -945.014753 694.993688 -948.947143 L 664.01445 -948.947143 C 662.667526 -947.718271 653.36151 -938.624619 635.973954 -922.034848 C 618.708845 -905.322189 603.647792 -890.944388 591.035691 -879.02433 C 578.301143 -866.981385 560.301348 -846.704999 537.036308 -817.949395 C 513.64882 -789.31668 492.955178 -762.281497 474.955384 -736.966736 C 456.955589 -711.651974 436.017053 -677.980883 412.017327 -635.953463 C 388.017601 -594.04893 367.323959 -552.390172 350.05885 -510.977188 C 332.671294 -469.687091 314.304157 -420.040666 294.957439 -362.037911 C 275.610721 -304.035156 260.672116 -245.295078 250.019176 -185.940563 C 239.366237 -126.708937 229.692878 -58.998093 220.999099 16.946192 C 212.305321 93.013364 208.386998 171.046731 208.999236 251.046294 C 208.999236 725.022196 330.34479 1095.035533 573.035897 1360.963418 C 588.341844 1377.676076 602.668211 1392.299652 616.014998 1404.957033 C 629.361784 1417.614414 640.382067 1428.3056 648.953397 1437.03059 C 657.647176 1445.632694 662.667526 1450.056633 664.01445 1450.056633 L 694.993688 1450.056633 C 699.034458 1446.001355 700.993619 1443.052063 700.993619 1440.962981 C 700.993619 1437.645026 694.38145 1429.042923 681.034664 1415.033783 C 667.687877 1401.024643 650.300321 1381.362692 628.994441 1356.04793 C 607.688562 1330.610281 583.688836 1299.028273 556.995263 1261.05613 C 530.301691 1222.961101 503.363223 1175.28087 476.057412 1118.015438 C 448.629154 1060.627119 423.282504 996.971553 400.017464 927.048741 C 376.629976 857.003041 356.67102 772.948201 340.018149 675.007108 C 323.365278 576.943129 312.712338 471.628805 308.05933 358.941249 C 306.712407 333.626487 305.977721 297.374765 305.977721 249.940309 C 305.977721 -9.351668 337.324302 -235.955651 400.017464 -429.994528 C 462.710626 -624.033405 559.321767 -788.702244 689.973337 -924.001043 C 697.320192 -931.98871 700.993619 -937.27286 700.993619 -939.976378 Z M 700.993619 -939.976378 "
     transform="matrix(0.0319014, 0, 0, -0.0317873, 33.762318, 216.163673)"
     id="path51" />
  <path
     fill-rule="nonzero"
     fill="rgb(0%, 0%, 0%)"
     fill-opacity="1"
     stroke-width="3.76159"
     stroke-linecap="butt"
     stroke-linejoin="miter"
     stroke="rgb(0%, 0%, 0%)"
     stroke-opacity="0.3981"
     stroke-miterlimit="4"
     d="M 72.951609 647.052769 C 72.951609 653.688678 74.298532 661.307684 76.992379 670.032674 C 79.686226 678.634778 83.726996 683.058717 88.992242 683.058717 C 89.726928 683.058717 113.726654 684.65625 160.99142 687.974204 C 208.378634 691.292159 232.623255 693.381241 233.970179 693.995677 C 242.051719 693.995677 245.970042 691.046384 245.970042 685.024912 C 245.970042 679.003439 234.704864 631.323208 212.052062 541.984219 C 206.664368 519.372976 201.031779 496.024409 195.031848 472.061407 C 189.031916 447.975517 184.011566 430.033987 179.970795 417.991042 L 176.052473 398.943527 C 176.052473 396.977332 178.011634 397.96043 182.052404 402.015707 C 214.623461 428.682228 248.296546 441.954045 282.949212 441.954045 C 324.336494 441.954045 357.642236 426.716033 382.988886 395.994234 C 408.335535 365.272436 421.314979 326.685858 422.049664 279.988725 C 422.049664 206.010635 395.723434 139.037115 342.948527 78.945277 C 290.296066 18.976327 233.725284 -11.008148 172.991283 -11.008148 C 139.685541 -11.008148 109.318541 1.649233 82.01273 26.963995 C 54.706919 52.278757 40.625447 93.323079 40.01321 149.974075 L 40.01321 158.94484 C 40.01321 172.95398 42.707056 192.370156 47.972302 216.947595 C 53.359996 241.64792 69.645524 307.392569 96.951335 414.058652 C 130.379525 545.302174 147.032396 614.979212 147.032396 622.966879 C 147.032396 630.954547 134.297847 635.62426 108.951198 636.976019 C 105.645113 636.976019 102.951267 636.976019 100.992105 636.976019 L 95.971754 636.976019 C 89.359585 636.976019 84.951472 636.976019 82.992311 636.976019 C 81.033149 636.976019 78.706645 637.959117 76.012799 640.048199 C 73.318952 642.014394 72.339371 644.349251 72.951609 647.052769 Z M 335.969014 324.965437 L 335.969014 330.98691 C 335.969014 380.387561 315.642716 404.965 274.990119 404.965 C 263.724941 404.965 251.969973 402.384369 239.97011 396.977332 C 227.970247 391.693183 216.949965 384.688613 207.031711 375.963622 C 196.991009 367.361519 188.297231 359.373851 180.950376 352.00062 C 173.725969 344.627388 167.726037 337.377044 162.950582 330.003812 L 156.95065 322.016144 L 136.012114 235.99511 C 121.318404 178.606791 113.971549 138.054017 113.971549 113.968127 C 113.971549 82.017457 122.053089 58.054455 137.971275 41.956232 C 148.624214 31.387934 161.971001 25.980897 178.011634 25.980897 C 200.052199 25.980897 222.337659 36.672083 244.990461 58.054455 C 261.643332 73.292466 274.990119 91.97132 285.03082 113.968127 C 294.949075 135.964935 305.969357 170.987785 317.96922 219.036677 C 329.969083 266.962682 335.969014 302.354194 335.969014 324.965437 Z M 335.969014 324.965437 "
     transform="matrix(0.0319014, 0, 0, -0.0317873, 57.305554, 193.403987)"
     id="path53" />
  <path
     fill-rule="nonzero"
     fill="rgb(0%, 0%, 0%)"
     fill-opacity="1"
     stroke-width="3.76159"
     stroke-linecap="butt"
     stroke-linejoin="miter"
     stroke="rgb(0%, 0%, 0%)"
     stroke-opacity="0.3981"
     stroke-miterlimit="4"
     d="M 34.054079 159.046714 C 34.054079 231.673045 62.706813 297.049031 120.012281 355.051786 C 177.317749 413.054541 239.276226 442.055919 306.010158 442.055919 C 343.35667 442.055919 372.621642 433.945364 394.049969 417.970029 C 415.355848 401.994694 426.37613 380.980984 426.988368 355.051786 C 426.988368 335.63561 420.621094 319.291613 408.008993 306.019796 C 395.274445 292.625092 379.356259 285.620522 360.009541 285.006087 C 347.274993 285.006087 337.356738 288.324041 330.009884 294.959949 C 322.663029 301.718745 318.989601 311.672607 318.989601 324.944424 C 318.989601 338.339128 322.663029 349.64475 330.009884 358.984177 C 337.356738 368.323603 344.703593 375.328173 352.050448 379.997886 C 359.274856 384.6676 364.050311 386.633795 366.009473 386.019359 L 366.989053 386.019359 C 366.989053 387.371118 365.029892 389.337313 360.989122 392.040831 C 356.948351 394.621462 349.968839 397.324981 340.050585 400.028499 C 330.009884 402.60913 318.622258 403.960889 306.010158 403.960889 C 286.051202 403.960889 266.949379 399.291176 248.949584 389.951749 C 234.99056 384.053164 220.664193 373.607752 205.970483 358.984177 C 176.705511 329.614137 155.277184 288.324041 142.052846 234.990999 C 128.706059 181.657957 121.726547 142.948492 120.991862 118.985489 C 120.991862 88.386578 129.68564 65.283786 146.950749 50.045774 C 161.644459 33.947552 180.991177 25.959884 204.990903 25.959884 L 209.031673 25.959884 C 283.724698 25.959884 345.315831 54.346826 394.049969 110.997822 C 400.0499 117.63373 403.968223 120.951684 406.049832 120.951684 C 408.621231 120.951684 413.029344 118.002392 419.029275 111.980919 C 425.029207 105.959447 428.335292 101.289733 428.947529 97.971779 C 429.682215 94.653825 426.621025 89.61545 420.008856 82.979542 C 413.274239 76.343633 403.723328 67.004207 390.988779 54.961262 C 378.376678 43.041204 363.315626 32.964454 346.050517 24.976787 C 328.66296 16.989119 307.357081 8.63279 282.010431 0.0306867 C 256.663782 -8.694304 229.970209 -12.38092 202.052161 -11.029161 C 151.9711 -11.029161 111.685845 4.946174 80.951502 37.019732 C 50.339607 68.970402 34.666317 109.646063 34.054079 159.046714 Z M 34.054079 159.046714 "
     transform="matrix(0.0319014, 0, 0, -0.0317873, 57.241752, 238.8916)"
     id="path55" />
  <path
     fill-rule="nonzero"
     fill="rgb(0%, 0%, 0%)"
     fill-opacity="1"
     stroke-width="3.76159"
     stroke-linecap="butt"
     stroke-linejoin="miter"
     stroke="rgb(0%, 0%, 0%)"
     stroke-opacity="0.3981"
     stroke-miterlimit="4"
     d="M 34.028693 1438.013688 C 34.028693 1443.297837 35.008274 1446.615791 36.967435 1447.96755 C 39.049044 1449.31931 43.33471 1450.056633 49.946879 1450.056633 L 71.007863 1450.056633 C 72.354786 1448.704874 81.660803 1439.611221 99.048359 1423.02145 C 116.313468 1406.308792 131.374521 1392.053878 143.986622 1380.010933 C 156.72117 1367.967988 174.720965 1347.691601 197.986005 1319.058885 C 221.373493 1290.303282 241.944687 1263.390987 259.944482 1237.953338 C 277.944276 1212.638576 299.00526 1178.967486 323.004986 1136.940066 C 347.004712 1095.035533 367.698353 1053.622549 384.963462 1012.946888 C 402.351019 972.394115 420.718156 922.624802 439.942427 864.007611 C 459.289144 805.39042 474.350197 746.650342 485.003137 688.033151 C 495.656076 629.293073 505.329435 561.705117 514.023213 485.023509 C 522.716992 408.3419 526.635314 330.308533 526.023076 251.046294 C 526.023076 173.012926 523.696572 107.022504 519.043564 52.952139 C 487.696983 -328.36682 368.677934 -632.635509 161.986416 -859.976815 C 146.680469 -876.689474 132.354102 -891.31305 119.007315 -903.97043 C 105.660529 -916.627811 94.640246 -927.318997 85.946468 -936.043988 C 77.375137 -944.646091 72.354786 -948.947143 71.007863 -948.947143 L 55.946811 -948.947143 C 47.37548 -948.947143 41.620444 -948.332707 39.049044 -946.980948 C 36.355197 -945.629189 34.640931 -942.311234 34.028693 -937.027085 C 70.028282 -901.021138 105.293186 -859.608154 139.945852 -813.033908 C 331.94366 -557.674321 427.942564 -203.021883 427.942564 251.046294 C 427.942564 385.60777 419.371233 511.321368 401.983676 627.941314 C 384.718567 744.684147 363.29024 842.625239 337.943591 922.010366 C 312.719389 1001.272605 281.617704 1075.988018 245.005877 1146.033718 C 208.39405 1215.956531 174.96586 1270.27267 144.966202 1308.982136 C 114.966545 1347.691601 82.028145 1386.27818 46.028556 1424.987645 C 44.681633 1426.339405 43.33471 1427.691164 41.987786 1429.042923 C 40.640863 1430.394682 39.661282 1431.623554 39.049044 1432.975313 C 38.314359 1434.327072 37.334778 1435.31017 35.987855 1436.047493 Z M 34.028693 1438.013688 "
     transform="matrix(0.0319014, 0, 0, -0.0317873, 71.055062, 216.163673)"
     id="path57" />
  <path
     fill-rule="nonzero"
     fill="rgb(42.349243%, 55.688477%, 74.899292%)"
     fill-opacity="1"
     d="M 171.4375 134.570313 C 171.4375 134.769531 171.398438 134.960938 171.324219 135.144531 C 171.246094 135.328125 171.140625 135.488281 170.996094 135.628906 C 170.855469 135.769531 170.695313 135.878906 170.511719 135.957031 C 170.328125 136.03125 170.136719 136.070313 169.9375 136.070313 C 169.738281 136.070313 169.546875 136.03125 169.363281 135.957031 C 169.179688 135.878906 169.015625 135.769531 168.875 135.628906 C 168.734375 135.488281 168.625 135.328125 168.550781 135.144531 C 168.472656 134.960938 168.4375 134.769531 168.4375 134.570313 C 168.4375 134.371094 168.472656 134.179688 168.550781 133.996094 C 168.625 133.8125 168.734375 133.648438 168.875 133.507813 C 169.015625 133.367188 169.179688 133.257813 169.363281 133.183594 C 169.546875 133.105469 169.738281 133.070313 169.9375 133.070313 C 170.136719 133.070313 170.328125 133.105469 170.511719 133.183594 C 170.695313 133.257813 170.855469 133.367188 170.996094 133.507813 C 171.140625 133.648438 171.246094 133.8125 171.324219 133.996094 C 171.398438 134.179688 171.4375 134.371094 171.4375 134.570313 Z M 171.4375 134.570313 "
     id="path59" />
  <path
     fill="none"
     stroke-width="3"
     stroke-linecap="butt"
     stroke-linejoin="miter"
     stroke="rgb(42.349243%, 55.688477%, 74.899292%)"
     stroke-opacity="1"
     stroke-miterlimit="10"
     d="M 170.000265 80.397555 L 215.9991 80.397555 C 222.66854 80.397555 226.000657 83.734878 226.000657 90.399112 L 226.000657 178.861614 "
     transform="matrix(0.750274, 0, 0, 0.750274, 0.375137, 0.375137)"
     id="path61" />
  <path
     fill="none"
     stroke-width="3"
     stroke-linecap="butt"
     stroke-linejoin="miter"
     stroke="rgb(42.349243%, 55.688477%, 74.899292%)"
     stroke-opacity="1"
     stroke-miterlimit="10"
     d="M 170.000265 277.398563 L 215.9991 277.398563 C 222.66854 277.398563 226.000657 274.066446 226.000657 267.402212 L 226.000657 178.861614 "
     transform="matrix(0.750274, 0, 0, 0.750274, 0.375137, 0.375137)"
     id="path63" />
  <path
     fill="none"
     stroke-width="3"
     stroke-linecap="butt"
     stroke-linejoin="miter"
     stroke="rgb(42.349243%, 55.688477%, 74.899292%)"
     stroke-opacity="1"
     stroke-miterlimit="10"
     d="M 226.000657 178.861614 L 342.999618 179.361431 "
     transform="matrix(0.750274, 0, 0, 0.750274, 0.375137, 0.375137)"
     id="path65" />
  <path
     fill="none"
     stroke-width="3"
     stroke-linecap="butt"
     stroke-linejoin="miter"
     stroke="rgb(42.349243%, 55.688477%, 74.899292%)"
     stroke-opacity="1"
     stroke-miterlimit="10"
     d="M 528.327804 178.34097 L 627.697782 178.757485 C 634.367223 178.788724 641.031457 178.804343 647.700897 178.809549 L 745.998351 178.88244 "
     transform="matrix(0.750274, 0, 0, 0.750274, 0.375137, 0.375137)"
     id="path67" />
  <path
     fill-rule="nonzero"
     fill="rgb(0%, 0%, 0%)"
     fill-opacity="1"
     stroke-width="3.775528"
     stroke-linecap="butt"
     stroke-linejoin="miter"
     stroke="rgb(0%, 0%, 0%)"
     stroke-opacity="0.3954"
     stroke-miterlimit="4"
     d="M 700.943013 -939.9734 C 700.943013 -941.93982 698.957542 -945.012353 694.986601 -948.945194 L 663.963622 -948.945194 C 662.722703 -947.716181 653.291718 -938.621485 636.042942 -922.02981 C 618.670074 -905.315234 603.654952 -891.058684 590.997577 -879.014357 C 578.340201 -866.97003 560.346874 -846.691316 537.017594 -818.055314 C 513.688314 -789.29641 492.964964 -762.381027 474.971636 -736.940458 C 456.978309 -711.622791 436.006775 -677.947836 412.057035 -636.038494 C 387.983204 -594.006251 367.383946 -552.342711 350.011078 -511.047876 C 332.63821 -469.630139 314.272607 -419.978015 295.03836 -361.968603 C 275.680021 -303.959192 260.664899 -245.335273 249.992995 -185.973947 C 239.32109 -126.612621 229.641921 -59.016908 220.955487 17.058994 C 212.393144 93.011995 208.298111 171.054319 209.042663 250.940161 C 209.042663 724.970461 330.280464 1095.026264 573.004249 1360.984669 C 588.391646 1377.699245 602.662217 1392.3245 615.940051 1404.983333 C 629.341978 1417.642167 640.386159 1428.334579 648.948501 1437.060571 C 657.634935 1445.663662 662.722703 1449.965207 663.963622 1449.965207 L 694.986601 1449.965207 C 698.957542 1446.032366 700.943013 1442.959834 700.943013 1440.993413 C 700.943013 1437.675078 694.366142 1428.949086 680.964215 1415.061239 C 667.68638 1401.050492 650.313512 1381.386284 628.969702 1355.945716 C 607.625893 1330.628049 583.676154 1299.042416 556.996392 1260.943014 C 530.31663 1222.966513 503.388685 1175.28081 475.964372 1118.008806 C 448.66415 1060.613901 423.3494 996.951029 400.02012 927.020192 C 376.69084 856.966453 356.712041 773.024868 339.959633 674.949633 C 323.331316 576.9973 312.659412 471.670889 307.943919 358.970401 C 306.703 333.652733 305.958448 297.27395 305.958448 249.956951 C 305.958448 -9.364784 337.353703 -235.994775 400.02012 -430.055922 C 462.686537 -623.994167 559.354138 -788.681904 690.022925 -923.996231 C 697.344347 -931.984815 700.943013 -937.392472 700.943013 -939.9734 Z M 700.943013 -939.9734 "
     transform="matrix(0.0314787, 0, 0, -0.0317836, 561.204769, 142.635947)"
     id="path69" />
  <path
     fill-rule="nonzero"
     fill="rgb(0%, 0%, 0%)"
     fill-opacity="1"
     stroke-width="3.775528"
     stroke-linecap="butt"
     stroke-linejoin="miter"
     stroke="rgb(0%, 0%, 0%)"
     stroke-opacity="0.3954"
     stroke-miterlimit="4"
     d="M 21.032792 286.973065 C 21.653252 288.939486 22.273712 291.643315 23.018263 294.96165 C 23.638723 298.279985 25.376009 305.654063 27.98194 316.960982 C 30.711962 328.390802 33.938352 338.714511 38.033385 348.05501 C 42.004326 357.272607 46.968003 368.333724 53.048506 380.992557 C 59.004918 393.651391 65.705882 403.606396 73.027305 410.980473 C 80.348728 418.354551 89.035162 425.605728 98.962515 432.979805 C 109.01396 440.353883 120.05814 443.303514 131.970964 441.9516 C 151.329303 441.9516 168.329895 438.018759 182.972741 430.030174 C 197.615587 422.04159 208.039308 414.667512 213.99572 408.030842 C 219.952132 401.394172 223.674889 394.634601 225.0399 387.997931 C 226.28082 383.942188 227.273555 381.975768 228.018106 381.975768 C 228.638566 381.975768 231.368588 384.310892 235.959989 388.981141 C 267.975703 423.639307 304.955094 440.96839 347.022253 440.96839 L 350.000459 440.96839 C 382.016173 440.96839 405.965912 427.326346 421.973769 400.042258 C 427.309722 387.383425 430.039744 374.970394 430.039744 363.048968 C 430.039744 343.016057 425.696527 327.038888 417.010093 314.994561 C 408.323659 302.950234 399.637225 295.330354 390.95079 292.012019 C 382.388448 288.693684 373.950198 287.341769 366.008316 287.956276 C 352.606389 287.956276 342.058576 291.643315 333.992602 299.017393 C 326.050719 306.39147 321.955686 315.977771 321.955686 328.022098 C 321.955686 359.976435 340.693565 381.361261 378.045231 392.053674 C 363.278293 400.656765 351.36547 404.95831 342.058576 404.95831 C 304.70691 404.95831 270.333449 380.378051 238.938195 330.97173 C 232.361323 320.279317 227.273555 309.341101 224.047165 298.034182 C 220.696683 286.727263 209.280227 242.359895 190.04598 165.05498 C 167.33716 71.649994 154.307509 21.997871 150.957027 15.975707 C 142.394685 -1.967882 128.000023 -10.939677 108.021225 -10.939677 C 99.334791 -10.939677 92.385643 -8.973256 87.049691 -5.040414 C 81.713739 -0.984672 77.990981 2.94817 76.005511 7.003913 C 74.02004 11.059655 73.275489 14.37799 74.02004 16.958918 C 74.02004 25.68491 87.297875 82.956914 113.977637 189.020732 C 140.657398 294.96165 154.059325 353.954272 154.059325 365.998599 C 154.059325 392.053674 145.372891 404.95831 128.000023 404.95831 C 113.977637 404.95831 101.940721 395.617811 92.013368 377.059716 C 81.961923 358.378719 74.02004 337.977103 67.939536 315.977771 C 61.983124 293.978439 58.384459 282.057014 57.019448 279.967692 C 55.654437 278.615777 50.318484 278.001271 41.011591 278.001271 L 26.989204 278.001271 C 23.018263 282.057014 21.032792 285.006645 21.032792 286.973065 Z M 21.032792 286.973065 "
     transform="matrix(0.0314787, 0, 0, -0.0317836, 584.373072, 119.87886)"
     id="path71" />
  <path
     fill-rule="nonzero"
     fill="rgb(0%, 0%, 0%)"
     fill-opacity="1"
     stroke-width="5.340209"
     stroke-linecap="butt"
     stroke-linejoin="miter"
     stroke="rgb(0%, 0%, 0%)"
     stroke-opacity="0.2795"
     stroke-miterlimit="4"
     d="M 212.930402 578.084634 L 199.941997 573.043421 C 190.639492 569.740557 177.300049 566.263859 159.92367 562.960995 C 142.72281 559.658131 123.415723 557.398277 102.002407 556.007597 L 83.046358 556.007597 L 83.046358 602.073856 L 102.002407 602.073856 C 133.420304 603.2907 162.380936 608.331914 189.059821 617.023661 C 215.738705 625.715407 234.343717 633.711815 245.050375 641.012882 C 255.581514 648.313949 265.059539 655.615017 272.957893 662.916084 C 274.362044 665.002103 278.398981 666.045113 285.068702 666.045113 C 291.036347 666.045113 296.652955 663.959094 301.918524 659.96089 L 301.918524 360.964797 L 302.971638 60.925694 C 307.71065 56.405985 311.747587 53.276957 315.082447 52.060112 C 318.417308 50.669432 326.315662 49.278753 338.953029 48.061908 C 351.590395 46.671229 372.301635 45.975889 401.086747 45.975889 L 427.063556 45.975889 L 427.063556 0.0834655 L 416.00586 0.0834655 C 401.964342 1.99565 348.95761 3.038659 256.985665 3.038659 C 166.417872 3.038659 113.937698 1.99565 100.071698 0.0834655 L 87.960889 0.0834655 L 87.960889 45.975889 L 113.937698 45.975889 C 128.681292 45.975889 141.318658 45.975889 152.025316 45.975889 C 162.731974 45.975889 170.981366 46.323559 176.949011 47.018899 C 182.916656 47.714239 188.357745 48.583413 192.921238 49.974093 C 197.660251 51.364772 200.293035 52.060112 200.995111 52.060112 C 201.697187 52.060112 203.627896 53.624626 206.962757 56.92749 C 210.297617 60.404189 212.403845 61.621034 212.930402 60.925694 Z M 212.930402 578.084634 "
     transform="matrix(0.0222554, 0, 0, -0.022471, 599.608799, 124.646407)"
     id="path73" />
  <path
     fill-rule="nonzero"
     fill="rgb(0%, 0%, 0%)"
     fill-opacity="1"
     stroke-width="3.775528"
     stroke-linecap="butt"
     stroke-linejoin="miter"
     stroke="rgb(0%, 0%, 0%)"
     stroke-opacity="0.3954"
     stroke-miterlimit="4"
     d="M 21.032792 287.033164 C 21.653252 288.999585 22.273712 291.703413 23.018263 295.021748 C 23.638723 298.340083 25.376009 305.714161 27.98194 317.02108 C 30.711962 328.328 33.938352 338.651709 38.033385 347.992207 C 42.004326 357.332706 46.968003 368.393822 53.048506 381.052656 C 59.004918 393.711489 65.705882 403.666494 73.027305 411.040572 C 80.348728 418.291749 89.035162 425.665826 98.962515 433.039904 C 109.01396 440.291081 120.05814 443.363613 131.970964 442.011699 C 151.329303 442.011699 168.329895 437.955956 182.972741 429.967372 C 197.615587 421.978787 208.039308 414.727611 213.99572 407.96804 C 219.952132 401.33137 223.674889 394.6947 225.0399 388.05803 C 226.28082 384.002287 227.273555 382.035866 228.018106 382.035866 C 228.638566 382.035866 231.368588 384.370991 235.959989 389.04124 C 267.975703 423.699406 304.955094 441.028488 347.022253 441.028488 L 350.000459 441.028488 C 382.016173 441.028488 405.965912 427.386445 421.973769 399.979455 C 427.309722 387.320622 430.039744 375.030492 430.039744 362.986165 C 430.039744 342.953254 425.696527 326.976085 417.010093 315.05466 C 408.323659 303.010333 399.637225 295.390452 390.95079 291.949216 C 382.388448 288.630881 373.950198 287.278967 366.008316 288.016375 C 352.606389 288.016375 342.058576 291.703413 333.992602 298.95459 C 326.050719 306.328668 321.955686 316.03787 321.955686 327.959296 C 321.955686 360.036534 340.693565 381.298458 378.045231 391.990871 C 363.278293 400.716863 351.36547 405.018409 342.058576 405.018409 C 304.70691 405.018409 270.333449 380.315248 238.938195 331.031828 C 232.361323 320.339415 227.273555 309.278299 224.047165 297.97138 C 220.696683 286.66446 209.280227 242.297092 190.04598 164.992177 C 167.33716 71.710093 154.307509 22.057969 150.957027 16.035806 C 142.394685 -2.030685 128.000023 -11.002479 108.021225 -11.002479 C 99.334791 -11.002479 92.385643 -9.036059 87.049691 -4.980316 C 81.713739 -1.047474 77.990981 3.008269 76.005511 6.94111 C 74.02004 10.996853 73.275489 14.315188 74.02004 17.019016 C 74.02004 25.622107 87.297875 83.017012 113.977637 188.95793 C 140.657398 295.021748 154.059325 354.014371 154.059325 366.058698 C 154.059325 391.990871 145.372891 405.018409 128.000023 405.018409 C 113.977637 405.018409 101.940721 395.67791 92.013368 376.996913 C 81.961923 358.315916 74.02004 338.037202 67.939536 316.03787 C 61.983124 294.038538 58.384459 281.994211 57.019448 280.02779 C 55.654437 278.675876 50.318484 278.06137 41.011591 278.06137 L 26.989204 278.06137 C 23.018263 281.994211 21.032792 284.943842 21.032792 287.033164 Z M 21.032792 287.033164 "
     transform="matrix(0.0314787, 0, 0, -0.0317836, 584.373072, 165.361239)"
     id="path75" />
  <path
     fill-rule="nonzero"
     fill="rgb(0%, 0%, 0%)"
     fill-opacity="1"
     stroke-width="5.340209"
     stroke-linecap="butt"
     stroke-linejoin="miter"
     stroke="rgb(0%, 0%, 0%)"
     stroke-opacity="0.2795"
     stroke-miterlimit="4"
     d="M 109.023166 429.019583 C 90.944712 429.019583 76.727674 434.929971 66.021017 446.924582 C 55.314359 458.919193 50.04879 473.695162 50.04879 491.078656 C 50.04879 538.361759 67.600687 579.386805 103.055521 613.979957 C 138.334836 648.746945 182.3901 665.956604 235.045793 665.956604 C 295.599841 665.956604 346.324826 647.356265 387.045229 609.981754 C 427.590113 572.607242 448.301352 524.281129 449.003428 465.003415 C 449.003428 436.320651 442.333707 409.028565 428.994265 382.953325 C 415.654822 357.051919 399.682595 334.279542 381.077583 314.983864 C 362.297053 295.688186 335.618168 271.003625 301.040929 240.93018 C 276.994829 220.417658 243.646223 189.648874 200.995111 148.971498 L 142.020734 92.996648 L 218.020452 91.953638 C 322.629764 91.953638 378.26928 93.691988 384.939001 96.994852 C 389.678013 98.385531 397.751886 127.937471 408.985101 185.99834 L 408.985101 188.953534 L 449.003428 188.953534 L 449.003428 185.99834 C 448.301352 184.086156 443.913378 153.665041 436.015024 95.082667 C 427.941151 36.326458 423.026619 5.731509 420.920392 2.95015 L 420.920392 -0.00504377 L 50.04879 -0.00504377 L 50.04879 30.937575 C 50.04879 35.631119 51.979498 40.672332 56.016435 46.061215 C 60.053371 51.276263 70.057953 62.923204 86.03018 81.002037 C 105.337268 102.383735 122.011571 120.984073 136.053089 136.976887 C 142.020734 143.582615 153.253949 155.924896 169.928252 174.003729 C 186.602555 192.082563 198.011289 204.251008 203.978934 211.030571 C 209.946579 217.636299 219.600123 228.5879 232.939565 244.059209 C 246.279008 259.356684 255.581514 270.655955 261.022602 277.957022 C 266.288171 285.25809 274.011006 295.340516 284.015588 308.030466 C 294.02017 320.720417 301.040929 331.324348 305.077866 340.016095 C 308.939283 348.707842 314.029334 358.268763 319.996979 369.04653 C 325.964624 379.650461 330.352599 390.254392 332.985383 401.032158 C 335.618168 411.636089 338.075434 421.718516 340.006142 430.931768 C 341.936851 440.318854 342.989965 451.270455 342.989965 463.960406 C 342.989965 506.028461 331.581231 542.359963 308.939283 572.954912 C 286.297335 603.723696 254.001843 619.02117 212.052807 619.02117 C 189.937416 619.02117 170.630328 613.284618 153.956025 601.985347 C 137.281722 590.686076 125.697469 579.734475 119.027748 568.956708 C 112.358027 558.352777 109.023166 551.920884 109.023166 550.0087 C 109.023166 549.31336 110.602837 548.96569 113.937698 548.96569 C 126.048507 548.96569 138.334836 544.272147 150.972202 535.058895 C 163.609569 525.671809 169.928252 510.374334 169.928252 488.992637 C 169.928252 472.304483 164.662683 458.397688 153.956025 446.924582 C 143.249367 435.625311 128.330254 429.714923 109.023166 429.019583 Z M 109.023166 429.019583 "
     transform="matrix(0.0222554, 0, 0, -0.022471, 599.608799, 170.128793)"
     id="path77" />
  <path
     fill-rule="nonzero"
     fill="rgb(0%, 0%, 0%)"
     fill-opacity="1"
     stroke-width="3.775528"
     stroke-linecap="butt"
     stroke-linejoin="miter"
     stroke="rgb(0%, 0%, 0%)"
     stroke-opacity="0.3954"
     stroke-miterlimit="4"
     d="M 33.967559 1438.043782 C 33.967559 1443.328537 34.960294 1446.646872 36.945765 1447.998787 C 39.055328 1449.350701 43.274453 1449.965207 49.975416 1449.965207 L 70.94695 1449.965207 C 72.311961 1448.613293 81.618854 1439.641499 98.991722 1423.049824 C 116.364591 1406.335247 131.379712 1391.955796 144.037088 1380.03437 C 156.694463 1367.990043 174.687791 1347.711329 198.01707 1318.952426 C 221.34635 1290.316424 241.945608 1263.278138 259.938936 1237.960471 C 278.056356 1212.642804 299.027889 1178.967849 322.977629 1137.058507 C 347.05146 1095.026264 367.650718 1053.608527 385.023586 1013.051099 C 402.272362 972.37077 420.637966 922.718646 439.996304 863.971827 C 459.354643 805.347909 474.369765 746.72399 485.041669 687.977171 C 495.713574 629.353252 505.392743 561.634638 513.955086 484.944229 C 522.64152 408.376722 526.612461 330.334398 525.992001 250.940161 C 525.992001 173.020739 523.634255 107.022743 519.042854 52.946173 C 487.6476 -328.293648 368.643453 -632.720159 162.030415 -859.964656 C 146.643018 -876.679232 132.372448 -891.304486 118.970521 -903.96332 C 105.692686 -916.622153 94.648505 -927.314566 85.962071 -936.040558 C 77.275637 -944.643649 72.311961 -948.945194 70.94695 -948.945194 L 56.05592 -948.945194 C 47.369486 -948.945194 41.661258 -948.330688 39.055328 -946.978774 C 36.325306 -945.626859 34.712111 -942.308524 33.967559 -937.023769 C 69.954214 -901.013689 105.32041 -859.718853 139.942054 -813.016361 C 332.036338 -557.627467 427.959389 -203.057227 427.959389 250.940161 C 427.959389 385.639982 419.272955 511.368008 402.024178 628.001338 C 384.65131 744.634668 363.307501 842.709903 337.99275 921.981239 C 312.678 1001.375476 281.655021 1075.976563 245.047906 1146.030302 C 208.316699 1215.961139 175.060066 1270.283512 145.029823 1308.997421 C 114.999579 1347.711329 81.99113 1386.302336 46.004475 1425.016244 C 44.639464 1426.368159 43.274453 1427.720073 42.033534 1428.949086 C 40.668523 1430.301 39.675787 1431.652914 39.055328 1433.004829 C 38.310776 1434.356743 37.318041 1435.339953 35.95303 1435.95446 Z M 33.967559 1438.043782 "
     transform="matrix(0.0314787, 0, 0, -0.0317836, 612.313558, 142.635947)"
     id="path79" />
</svg>
